/* XPM */
/* C:\Program Files\YouKu\iKu\iKu.exe */
static char *icon[] = {
"48 48 218 2",
"01 c #1F93AF",
"02 c #1B94B1",
"03 c #1C98B7",
"04 c #1E9EBE",
"05 c #2493AE",
"06 c #2E92A5",
"07 c #2C90A8",
"08 c #368EA1",
"09 c #349BAE",
"0A c #3A95A8",
"0B c #379EB1",
"0C c #3D9EB2",
"0D c #36A0B6",
"0E c #38A0B2",
"0F c #3FAABD",
"10 c #1D9FC0",
"12 c #1BA6C8",
"14 c #1BADD1",
"16 c #25A8C9",
"17 c #2BA5C3",
"19 c #2CABCA",
"1A c #27AFD1",
"1B c #22B1D4",
"1C c #27B5D8",
"1E c #2DB9DB",
"1F c #30A4C2",
"20 c #34A8C3",
"22 c #3CACC4",
"23 c #3BADC8",
"24 c #36B1CE",
"25 c #3CB2CC",
"26 c #34BBDC",
"27 c #3DB5D0",
"28 c #3BB8D7",
"2A c #3CC0DF",
"2B c #3BC3E2",
"2C c #53919F",
"2D c #5F919E",
"2E c #448FA0",
"2F c #419AAE",
"30 c #5193A2",
"31 c #599BAC",
"32 c #50A9BE",
"33 c #6C99A3",
"34 c #6F9FAB",
"35 c #7C9EA6",
"36 c #60ABBC",
"38 c #76A7B3",
"3A c #40A7C1",
"3B c #41AAC2",
"3C c #40AFCA",
"3D c #4CACC4",
"3F c #4AB5CF",
"40 c #4BBBCE",
"42 c #45B9D2",
"43 c #43BDDB",
"44 c #4BBDD4",
"45 c #59ACC0",
"46 c #53B2C9",
"47 c #5AB3C9",
"48 c #5EB9CF",
"49 c #57BED7",
"4A c #50BFDA",
"4B c #69AFC0",
"4C c #63B2C4",
"4D c #61B6CB",
"4E c #6CB1C2",
"4F c #6EBBCD",
"51 c #7AB5C3",
"52 c #4EC0D6",
"53 c #50C2D7",
"55 c #56C8DC",
"57 c #59CBDE",
"58 c #43C4E2",
"59 c #42CAE6",
"5A c #46CFEA",
"5B c #4AC7E3",
"5D c #4DCFEA",
"5E c #4CD2EB",
"5F c #56C7E2",
"61 c #53CEE9",
"62 c #5ACCE1",
"63 c #56D5EC",
"64 c #5DDCF0",
"65 c #68C0D6",
"66 c #7EC0D0",
"67 c #7DC9DC",
"68 c #67CDE5",
"69 c #61D4E5",
"6A c #63D5EA",
"6B c #64D9EC",
"6C c #69DCED",
"6E c #71CEE2",
"6F c #7BCEE2",
"70 c #78D9EB",
"71 c #75DDF0",
"72 c #6BE0EF",
"73 c #65E1F2",
"74 c #6BE3F3",
"75 c #6FE8F5",
"76 c #6FEBF8",
"77 c #74E5F3",
"78 c #70E9F6",
"79 c #71EAF8",
"7A c #7BE2F2",
"7B c #7AE9F6",
"7C c #E82713",
"7D c #E9291A",
"7E c #E93017",
"7F c #FE2301",
"80 c #FE2B00",
"81 c #FE290C",
"82 c #FE3201",
"83 c #FE3807",
"84 c #FE3A09",
"85 c #FF3514",
"86 c #FF3419",
"87 c #FF381B",
"88 c #E82922",
"89 c #E92B2B",
"8B c #FF3D25",
"8C c #FE4314",
"8E c #FE4B1E",
"8F c #E7412F",
"90 c #FE412A",
"91 c #FD4C21",
"92 c #FA4236",
"93 c #FF4933",
"94 c #FE552B",
"95 c #FE582E",
"96 c #FE513E",
"98 c #FE613A",
"9A c #E8564A",
"9D c #E85651",
"9E c #E85A53",
"9F c #E85B5B",
"A0 c #FB4E49",
"A1 c #FE5340",
"A2 c #FE594A",
"A3 c #FE5D50",
"A4 c #EB6353",
"A5 c #E8675D",
"A6 c #FE6741",
"A7 c #FE6A45",
"A9 c #FF6257",
"AB c #FE685F",
"AC c #FE714E",
"AE c #FE7C5B",
"AF c #E36763",
"B0 c #E86D64",
"B2 c #E67874",
"B3 c #E87574",
"B4 c #E87E7D",
"B5 c #FB6161",
"B6 c #FE6E66",
"B7 c #FE736E",
"B9 c #FE7D7A",
"BA c #E8817E",
"BB c #FE8465",
"BC c #FD866A",
"BD c #FD886C",
"BE c #FC8B71",
"BF c #84B1BC",
"C1 c #89BDCA",
"C2 c #92BBC5",
"C3 c #85C2D1",
"C4 c #81C7D8",
"C5 c #87C8D7",
"C7 c #99C2CC",
"C8 c #91C8D6",
"CA c #9BCEDA",
"CB c #8AD7E7",
"CC c #99DAE8",
"CE c #86E6F4",
"CF c #97E3EC",
"D0 c #97E9F5",
"D1 c #9EF0F8",
"D2 c #AAC4CA",
"D3 c #A5C7D0",
"D4 c #A4CAD3",
"D5 c #A8CCD4",
"D6 c #A3D4DF",
"D8 c #B4CDD3",
"D9 c #B4D0D7",
"DA c #B1D0D8",
"DB c #B9D4DB",
"DC c #ACDCE5",
"DD c #B3DFE6",
"DE c #A6E1E9",
"DF c #A5EAF5",
"E0 c #A9F0F9",
"E1 c #B4E3EA",
"E2 c #B0E7F4",
"E4 c #B7E9F5",
"E5 c #B6F3F9",
"E6 c #E68483",
"E8 c #E98F8D",
"E9 c #FF8584",
"EA c #FF8C8C",
"EB c #FE9797",
"EC c #EEAEAE",
"ED c #C4D7DC",
"EE c #CAD9DD",
"EF c #D5DDDF",
"F1 c #C2DBE0",
"F2 c #CADDE1",
"F3 c #DADEE0",
"F4 c #C9E2E4",
"F5 c #D4E1E3",
"F8 c #F7D9D9",
"F9 c #E4E4E4",
"FA c #EBEBEB",
"FB c #F9E5E5",
"FC c #FAEAEA",
"FD c #F3F3F3",
"FE c #FBF1F1",
"FF c #FDFDFD",
"   c None",
"                                        D2E1E0E0E2E0E4D3D8                                      ",
"                                D6DECECE7B7B7B787B787B7B7BCEDFDC                                ",
"                          D2DECE7B767676767676767676767676767679CED0D9                          ",
"                        CFCE79797B7678787876787876787876787876767676CED0D8                      ",
"                    CACE7779797978787878787878787878787878767676797979797BCC                    ",
"                  CC7A74797979787878787878787878787878787878CED1E5E5E5D1CE7BCE                  ",
"                7A7774767674797678787B78787B747B7B7B7B787B78CEE5E5E5E5E5E5D17B7A                ",
"              7A77747676747674747B74CEDEF4F5FAF9F9F9F3F4E1CF7B7BD1E5E5E5E5E0E07A7A              ",
"            70747474747474747475CFF4F9F9FAFAFAFAFAFDFAFAFAF9F3E17ACEE0E5E0E0E0D1CE6E            ",
"          707274737673747474CEF4F9FAFAFDFDFDFFFFFFFDFFFDFDFAFAFAF3DE75D0E0E0E0E0D17570          ",
"        C46B73737373737373DEF3FAFAFDFFFFFFFFFFFFFFFFFFFFFFFFFDFAFAF9F47AD0D1D0D1D0D0746F        ",
"        6A73646473736B73DDF9FAFDFDFFFFFFFFFFFFFFFFFFFFFFFFFFFFFFFDFAF9F570CED0D0D0D07A6BC7      ",
"      6864646464646464DCF9FAFDFFFFFFFFFFFFFFFFFFFFFFFFFFFFFFFFFFFFFDFDF9F571CED0CE7A6B6B6B      ",
"    C263636364646364CFF9FAFDFFFFFFFFFFFFFFFFFFFFFFFFFFFFFFFFFFFFFFFFFDFDF9F26A756A727A716366    ",
"    61635E635E635E70F3FAFDFFFFFFFFECFBFFFFFFFFFFFFFFFFFFFFFFFFFFFFFFFFFDFAF9DC6A757A7A7A6B5D    ",
"    595E5E5E5E5E63F4F9FDFFFFFFFFFF9D89B3FBFFFFFFFFFFFFFFFFFFFFFFFFFFFFFFFDFAF3706A7171726B61C1  ",
"  65595A5A5A5A5ACBF9FAFDFFFFFFFFFF9FEBB589B3FBFFFFFFFFFFFFFFFFFFFFFFFFFFFFFAFAF15E6C6A6A6B5E62  ",
"  582B5A5A5A5A59F5FAFDFFFFFFFFFFFF9FEAE9B9A089B4FCFFFFFFFFFFFFFFFFFFFFFFFFFDFAF96E636A6A6A5E58  ",
"  2B2B2B2B2B2B6EF9FAFDFFFFFFFFFFFF9FB9B9B7B6A99288B4FCFFFFFFFFFFFFFFFFFFFFFFFAF9DA59615F615F2B  ",
"C1262B2B2B2B26D6F9FDFFFFFFFFFFFFFF9FB7ABABA9A2A2968B7DB4FCFFFFFFFFFFFFFFFFFFFDFAEF585B5F5B5B2B4E",
"4E26262626262BEEFAFDFFFFFFFFFFFFFF9EABA9A3A296938B8785807CBAFCFFFFFFFFFFFFFFFDFAF955585858582662",
"5F1E1E1E1E1E26F9FAFDFFFFFFFFFFFFFF9EA3A2A18B817F7F7F808082807EE6FEFFFFFFFFFFFDFDF9671E2A1E1E1E26",
"431E1E1C1E1E4AF9FAFDFFFFFFFFFFFFFF9DA1907F7F7F7F8080808282848E918FE8FCFFFFFFFFFAF9C81E1E1E1E1E1E",
"261A1C1C1C1C49F9FAFFFFFFFFFFFFFFFF9D867F7F7F8080808282848E919598A7AC9AE8FEFFFFFAFACA1C1C1C1C1C1C",
"1E1C1C1B1C1B4AF9FAFDFFFFFFFFFFFFFF9A7F7F8080808082848C919598A7ACBBBDBE9AE6FFFFFDF9CA1C1C1A1C1C1A",
"28141A1B1B1B4AF9FAFFFFFFFFFFFFFFFF9A7F80808282848C919598A7ACBBBDBEA4B2F8FFFFFFFAF9C81C141C1C141C",
"43141414141427F9FAFDFFFFFFFFFFFFFF9A808082848C919498A7ACAEBDBEA4B2F8FFFFFFFFFFFAF9C4141A1414141A",
"4D14141414121AF3FAFDFFFFFFFFFFFFFF9A82838C919498A7ACAEBDBEA4B2F8FFFFFFFFFFFFFFFAF948141414141428",
"5114121414141BDBFAFDFFFFFFFFFFFFFF9A8C8E9495A7ACAEBCBDA4B2F8FFFFFFFFFFFFFFFFFDFAF927141412141445",
"  121412141412C5F9FAFFFFFFFFFFFFFF9E9495A6ACAEBBBDA4B2F8FFFFFFFFFFFFFFFFFFFFFDF9F216141214141251",
"  16121214121244F9FAFDFFFFFFFFFFFFA4A6ACAEBBBDA4B2F8FFFFFFFFFFFFFFFFFFFFFFFFFAF9C8121412141216  ",
"  3B121212121216DBF9FDFDFFFFFFFFFFA5AEBBBCA4B2F8FFFFFFFFFFFFFFFFFFFFFFFFFFFDFAF33F12121212121A  ",
"    12121212121248F9FAFDFFFFFFFFFFB0BDA4B2F8FFFFFFFFFFFFFFFFFFFFFFFFFFFFFDFAFAD51212161212124B  ",
"    17121212101212DAF9FAFFFFFFFFFFAFB2F8FFFFFFFFFFFFFFFFFFFFFFFFFFFFFFFFFAFAEF25101212121610    ",
"    4B10121012101024EFFAFAFFFFFFFFFEFFFFFFFFFFFFFFFFFFFFFFFFFFFFFFFFFFFDFAF9C41012101210123D    ",
"      1710121012171047F9FAFDFDFFFFFFFFFFFFFFFFFFFFFFFFFFFFFFFFFFFFFFFDFAF9D410101210121010      ",
"      51101019161619164FF3FAFDFDFFFFFFFFFFFFFFFFFFFFFFFFFFFFFFFFFDFDFAF9DA1717101010101036      ",
"        3A171919241919194DEFFAFAFDFFFFFFFFFFFFFFFFFFFFFFFFFFFFFDFDFAF9D4191616161910101F        ",
"          17242424242424233FEDF9FAFDFDFFFFFFFFFFFFFFFFFFFEFDFDFAFAF3C31923192319190404          ",
"            232727272727272520C1F3F9FAFAFDFDFDFDFEFDFDFDFDFAFAF9DA462327242424241703            ",
"              2542424242424242253BC1EEF9F9FAFAFAFAFAFAF9F9F9D44C232725253C2727230238            ",
"                3C44444444444444443C223251C7D8D9D9D9D3C14C3B3C444244424442423C0138              ",
"                  225555555555555355555544403C223C223C445353535353534452444405BF                ",
"                    2F446269576957695762626257575757575757555555555557554007                    ",
"                      340D626A6A6B69696969696A69696B6969696969696969570D31                      ",
"                          300D577474777272747272726A747272727272693B2E                          ",
"                              33080F57747B797979797B7B78756A400C2D                              ",
"                                    352C08060B0E0E0E090A3035                                    "};
