/* XPM */
/* C:\Program Files\YouKu\iKu\uninstall.exe */
static char *icon[] = {
"48 48 249 2",
"01 c #171F34",
"02 c #1A243C",
"03 c #1C2943",
"04 c #1E3249",
"05 c #232C46",
"06 c #202E51",
"07 c #27334B",
"08 c #243756",
"09 c #353547",
"0A c #353951",
"0B c #2A3C62",
"0C c #323E6A",
"0D c #1C4755",
"0E c #1E505D",
"0F c #364E59",
"10 c #2B4468",
"11 c #36496A",
"12 c #324B74",
"13 c #375278",
"14 c #2F6371",
"15 c #461C17",
"16 c #57241D",
"17 c #5E2720",
"18 c #70342B",
"19 c #4D3C46",
"1A c #49484C",
"1B c #464758",
"1C c #514954",
"1D c #535458",
"1E c #4A576A",
"1F c #44597A",
"20 c #565968",
"21 c #5B5D74",
"22 c #4E617A",
"23 c #56636D",
"24 c #5C6775",
"25 c #6E4A47",
"26 c #6E5550",
"27 c #754D55",
"28 c #7A5149",
"29 c #765A59",
"2A c #645A6C",
"2B c #686669",
"2C c #676878",
"2D c #70636C",
"2E c #7A6F79",
"2F c #78777A",
"30 c #186B9C",
"31 c #107DA7",
"32 c #3C4D84",
"33 c #3A5687",
"34 c #3E5E90",
"35 c #2E749C",
"36 c #3B618E",
"37 c #455986",
"38 c #495993",
"39 c #535B92",
"3A c #486088",
"3B c #446898",
"3C c #4E7298",
"3D c #5A6B86",
"3E c #58649D",
"3F c #55789A",
"40 c #466BA2",
"41 c #4A73A7",
"42 c #4E78B6",
"43 c #5976A3",
"44 c #527BB4",
"45 c #765799",
"46 c #7C59A2",
"47 c #686987",
"48 c #687689",
"49 c #6A7B92",
"4A c #736C88",
"4B c #767884",
"4C c #797996",
"4D c #676EB7",
"4E c #637CA5",
"4F c #7A69A9",
"50 c #717DA2",
"51 c #6D76C2",
"52 c #0A84B5",
"54 c #1892B9",
"55 c #038DC6",
"56 c #0286D5",
"57 c #0392CD",
"58 c #1697CB",
"59 c #038EFF",
"5A c #039BEE",
"5B c #0197FC",
"5C c #1391FF",
"5E c #269FFF",
"60 c #3DB2C5",
"61 c #3EB2DA",
"62 c #3AA5FE",
"63 c #4980A8",
"64 c #5680AA",
"66 c #688396",
"67 c #778699",
"68 c #6881AB",
"69 c #668AB8",
"6A c #6992BF",
"6B c #7989AB",
"6C c #7688B3",
"6D c #7792B7",
"6E c #5B85C4",
"6F c #46B2FB",
"70 c #5FAEFE",
"71 c #658BC6",
"72 c #6993CA",
"73 c #779AC4",
"74 c #729CD3",
"75 c #6CA8C4",
"76 c #66BCCB",
"77 c #7EAEC5",
"78 c #79BCDF",
"79 c #63B4FE",
"7A c #71BAE1",
"7B c #6CC3DF",
"7C c #8D4237",
"7D c #855C54",
"7E c #9B645B",
"7F c #836460",
"80 c #84706D",
"81 c #B9594D",
"82 c #A86457",
"83 c #B1766B",
"84 c #C97A6D",
"85 c #80599C",
"86 c #865CA6",
"87 c #807985",
"88 c #807A97",
"89 c #8B6CB3",
"8A c #997BC2",
"8B c #A17BC4",
"8C c #89837B",
"8D c #A7837C",
"8E c #BD8176",
"8F c #D1877E",
"90 c #878687",
"91 c #878497",
"92 c #988385",
"93 c #978C92",
"94 c #979699",
"95 c #8489A9",
"96 c #8389B7",
"97 c #8F94AB",
"98 c #8994BD",
"99 c #928EB8",
"9A c #9899A7",
"9B c #9596BE",
"9C c #83A6B7",
"9D c #AF9591",
"9E c #A598A6",
"9F c #A095BE",
"A0 c #ACA09A",
"A1 c #A6A6A7",
"A2 c #A9AAB5",
"A3 c #AFB1B5",
"A4 c #B3A6AC",
"A5 c #B7B7B8",
"A6 c #8B86C6",
"A7 c #8085D2",
"A8 c #8699C3",
"A9 c #8D91DE",
"AA c #9686CB",
"AB c #9C8CD0",
"AC c #9997C1",
"AD c #9899E5",
"AE c #87A5C9",
"AF c #87A8D4",
"B1 c #99A5CB",
"B2 c #98ABD2",
"B3 c #9AB1C6",
"B4 c #99B5D7",
"B5 c #82BAFD",
"B6 c #9AA6E6",
"B7 c #96B5E1",
"B8 c #A686C9",
"B9 c #A88CD4",
"BA c #A99ACC",
"BB c #A594D8",
"BC c #B38ED8",
"BD c #B298CE",
"BE c #B397DB",
"BF c #AB9CE4",
"C0 c #A3ABC9",
"C1 c #A7ACD4",
"C2 c #AAB6C8",
"C3 c #A8B7D8",
"C5 c #B8A9D4",
"C6 c #BDBEC0",
"C7 c #B8B6DB",
"C8 c #A5A7ED",
"C9 c #ADA8F4",
"CA c #A8B9E5",
"CB c #A7B6F5",
"CC c #BCA6E7",
"CD c #B3AAF7",
"CE c #B9BDE2",
"CF c #B7B5FB",
"D0 c #82C2DC",
"D1 c #86C5FE",
"D2 c #9BCAFE",
"D3 c #ADC6DD",
"D4 c #BDC0C8",
"D5 c #B1C2DC",
"D6 c #ABC4E5",
"D7 c #ABD3FE",
"D8 c #B8C6E6",
"D9 c #BCCAF6",
"DA c #BDD0ED",
"DB c #B8DCFE",
"DC c #D3968B",
"DD c #D9A49B",
"DE c #D4B0AB",
"DF c #E1B9B1",
"E0 c #CAADDB",
"E1 c #C3B7C7",
"E2 c #C1B6DB",
"E4 c #D7BFDB",
"E5 c #C2A6E7",
"E6 c #C4ACF2",
"E7 c #C6BCE3",
"E8 c #C7B5FB",
"E9 c #D4B7E1",
"EA c #DAC4BD",
"EB c #E4C3BA",
"EC c #C3C3C5",
"ED c #C8C5D4",
"EE c #D7C8C8",
"EF c #D7CADD",
"F0 c #D8D1D6",
"F1 c #C6C7E8",
"F2 c #C7CAF4",
"F3 c #C9D1EB",
"F4 c #C9D5F2",
"F5 c #D3C9EB",
"F6 c #D6CDF2",
"F7 c #D9D8E9",
"F8 c #D6D9F7",
"F9 c #DBE2FB",
"FA c #E7D0CE",
"FB c #E2D4E6",
"FC c #E3DBFB",
"FD c #E7E7FE",
"FE c #ECF0FE",
"FF c #F5F6FE",
"   c None",
"                                          EDECE1C6                                              ",
"                                A0270905020101010203050505198CA5                                ",
"                          EE931C050201020103060606060603010102092DA1                            ",
"                        941C05050206080C32323232383E370C0807020102092DA4                        ",
"                    A32D070502060B324DA7A9ADADADBFC9C8AA4F390C070302051B93                      ",
"                  921B0403060C3351C8CFCDCFCFE6CFCDE8E6E6BFBCA639120805051E87A5                  ",
"                2D0704041044B7D9D9D9CFCFCFE8C9C9B9C9E6E6CCBCBC8B893E320A08111DA4                ",
"              2D080505106DDAF8F9F9F4D9CFCFC9BFBF89B8E6E6CCBEB88B8A96A6390B111120A0              ",
"            2E0703051069F3F9F9F9F9F8D9CFC9C8ADAB868BE5E5BEBEB9B8BCABA6963732111123A5            ",
"          A10A03040D68D8FDFDFEFDF9F4F4CBB6BFBB898589BECCBCBFBEBEE5E7E5BFB16837121E24            ",
"          2A02030833B4F9FEFFFFFEFDF9F4CBC8C8AA864586B8BECCE9F5F6FCFBFBF5C7B13E37131E90          ",
"        940802040D4EDAFEFFFFFFFFFEF4F4D6B6A74F454689BEF5F5F6FBFADD8FDEF5D8C7A8433A3724A3        ",
"      EC1B020304106DF8FEFFFFFFFFFEF9F3D6B7A78AB9BEE5E9E4FBEBDDFAEBDCDFF5E7E7C06C4E3C3C2F        ",
"      91050204061273F7FDFFFFFFFFFDF8DAB7AEA6C5E9E0E4DFDFFADF8FDFDFDC8EE1F5CEC1986868644894      ",
"    ED1B02030308136DD8F9FEFFFEFEF9F4D3B4A3A5EADFDFFADD8FEAE4DDDDDF83188DF5E7C3A89669693C4B      ",
"    9405030304081064C3F3F9F9FDF8F4EDD3D4DEEBFADFDFFADD818FEF837EDE8D189DF5E7C5AC6C6C4E6424A1    ",
"    2A030204040D103675B4D8F4F7F7F3EAEEEADCDCDFDCDCDEDE7C7CF07D167FA0A4E4F3E7C5AC966C683E2290    ",
"    0A030303060810123B6AB4EDDFDFF0FADDEEDFDFEBDC7C7EDE28159EE1E1E1E2E7F5F5E7E2BA996C6C4E3D2F    ",
"    0502030408080B10333B6DDEDCDCDCFA84DEA482A0EE1725A4929DE1C5C5E2E2E7E7E7F5C7E7BD9B6C683F24A3  ",
"  D40402030406081010123664A484848183819D9D187FD4269EC5C5C5C5C5E2E2E7E7C5E7E7E7E7E7C5A668431E94  ",
"  A50302030408081012333640978EDC8D181629C69390A1ACB8BABDBDC7C7E2E2E2C5E7C5E7E7E7E7CEC1984E1E93  ",
"  A30203030608101013333B406C928DA5802691C2B4B4B2AEB8B9BDC5C7E2E7E5E7E7C7E2E7C7F5E7F5E7C7A82390  ",
"  A3020304060B1013333B4041699392C2C2C2C2B4AFB3B3B3BAC5C5E2E5E2E7C7E7E7E9E8F5E9E8E7D9F1CEC12487  ",
"  A3030406080C12333440426E71A8C3D3D5C3C3B2B4B4C3C3C1E2C7E7C7E0E7E9E9E9F5E9F5F5E9E9E7E7C7A8238C  ",
"  A50404080B13133440426E7274B7D3D6D3D8C3D5D5C7C7EDCECEE7F5F5F5F5E9F5F5F6F6F6F6F5F5F5C3B26C1E90  ",
"  C607070D10133440426E72AFD6DAD8D8D8D3D8D8D5D8D8D8F1F6F6F6F6F6F6F6F6E9F6E9FCF6F6F5E7C1B16D1E8C  ",
"  ED080810123640426E74AFD8DADADAD8F1F1F1F3F1DAF3F3F4F8F6F8FCF6FCFBF6F6F6F6F6F6F6F5CEC1AE6B2090  ",
"    0C0B0C333B447174B7DADADAF3DAF3DAF3F3F3F4F7F8F9F8F9F9FCFCFCFCFCFCFCFBF6FCF6F6D9CEC1B1492094  ",
"    1E0C13344472AFB7D8DADBF8F4F8F4F8F8D377D0D0D0D0787A75C7FCFDFCFCFCFCFCFCF6F6F6F1CEC1A83D1DA1  ",
"    4B11134069AFB4D8DADAF4F4F4F4F9F8F9EDB3F9F9F4D9D2B56349EFFDFDFCFCFCFCFCFCF8F6F1C7B296212B    ",
"    A21F3B68AECAD6DAF2F8F4F8F8F4F9F9F9DAB3DBDBDBD2B5703523E2FDFDFDFCFDFCFDFCF8F6D8C3AC501D8C    ",
"      4943A8CADADADADADBF8F4F9F9F9FDF9F3B3DBDBD7D2D1703523EDFDFDFEFDFDFCFCFCF6F6CEC1963D1DA1    ",
"      9A4EAED8F1DAD9DAF4F4F9F9F9FDFDFEF3B3DBDBD7D2B5793523D4FEFDFDFEFDFDFCFCF6D9E2B1501C2B      ",
"        67A8B4C3D6DAF4F4F4F9F9FDFDFEFDF3B3D7D7D2D170623023EDFDFEFEFEFDFDFCF8F6D8C1982C1D94      ",
"        9E6873B7D6DADAF4F9F9F9FDFDFD767B7BD1D179625C59565460D4FDFDFDFDFDF8F6D9C7B16B1A2D        ",
"          8869B2D8F4F4F4F9F9F9FDFDFED3616F6F5E5B5B5B5B5B5A149AF7FEFDFDFCF8F5CEC1AC2A1D94        ",
"          EC4773F1F8F4F8F8F9F9FDFDFEF79C585B5B5B5B5B5B570D1DA2F7FDFDFCF8F6CEC19B2C1A90          ",
"            9447B2F1DAF4DBF9F9FDFDFEFEF777585A5B5B5A550E1DA1F9FDFCFCF8F6CEC39F471A2B            ",
"              934CB2CAD3F4F4F9F9FDFDFEFEF79C545A5A520E1DA2F7FDFDF9F8F5F1C39F4A1D2BA1            ",
"                944CAEB7D3DAF4F9F9FDFDFDFDF79C5431041DA1F7FDFCF9F8F5F1C39F471D2BA1              ",
"                  9491A8B4D3DAF4F8F9FDFDFDFDEF670F1A9AF7FDFDF9F8F1C7C19F2A1C2BA1                ",
"                    A32E6BAFB4D8DAF3F8F9F9FDF9F19AA2F3FCF9F8F3D8D3B1881C1A8CA3                  ",
"                        948795AEB4D5F1F3F4F4F8F8F8F8F8F3F3F1D5C0911D1A2BA1                      ",
"                          A59087676DB3C3C3D3D6D8D8D3D3C1C0974C1D1D2B94A5                        ",
"                              A59487874B4866666666494B2C231D2B2F94A5                            ",
"                                    A39490902F2F2F2F2F9090A1A5                                  ",
"                                                                                                ",
"                                                                                                "};
