/* XPM */
/* C:\Program Files\YouKu\iKu\iKuPlayer.exe */
static char *icon[] = {
"48 48 231 2",
"01 c #4BA8BF",
"02 c #55A9BD",
"04 c #5CA9BC",
"05 c #62A0AF",
"07 c #63AABB",
"08 c #6AA6B5",
"09 c #6AA9B8",
"0A c #75A9B5",
"0C c #7BACB7",
"0D c #7AADBA",
"0E c #71B0BF",
"0F c #46AAC4",
"10 c #49ADC6",
"11 c #4BAFC8",
"12 c #40B1CE",
"13 c #4CB3CD",
"14 c #48B8D6",
"15 c #52ACC2",
"16 c #5BADC2",
"17 c #57B2C9",
"18 c #51B6D0",
"19 c #55B9D2",
"1A c #52BDDB",
"1B c #5BBED6",
"1C c #6EB1C1",
"1D c #7CB8C7",
"1F c #5CC0DB",
"20 c #58C1E0",
"21 c #62C2DD",
"22 c #6EC2D7",
"23 c #6EC5DC",
"24 c #74C9DE",
"25 c #67C7E3",
"26 c #74CAE1",
"27 c #72CCE9",
"28 c #7ACDE5",
"29 c #7CD1ED",
"2A c #EE1606",
"2B c #FB0500",
"2C c #FD0C00",
"2D c #F11C03",
"2E c #FD1400",
"2F c #FE1B00",
"30 c #FC2700",
"31 c #FC3301",
"32 c #FA3F13",
"33 c #F34C02",
"34 c #FE4315",
"35 c #FD5B01",
"36 c #F25616",
"37 c #F25B10",
"38 c #FF562C",
"39 c #FE5931",
"3A c #FC6702",
"3B c #F26518",
"3C c #F76A15",
"3D c #F76A1D",
"3E c #FD6311",
"40 c #FE6E1A",
"41 c #FD7702",
"42 c #FE7313",
"43 c #FE731B",
"44 c #FF7A13",
"45 c #FE7A1D",
"46 c #EE6B23",
"48 c #F16A20",
"49 c #FA643E",
"4A c #F27626",
"4C c #FF7424",
"4D c #FE762D",
"4E c #FE7925",
"4F c #FE7B2B",
"50 c #FE7C32",
"51 c #E07941",
"52 c #FD6B47",
"53 c #F37F42",
"54 c #FE714E",
"55 c #FC7553",
"56 c #FE8703",
"57 c #F78717",
"58 c #FE8315",
"59 c #FE831D",
"5A c #FE8D16",
"5B c #FE8B1B",
"5C c #FE9306",
"5D c #FE9017",
"5E c #FE9318",
"5F c #FE8325",
"61 c #FE8D21",
"62 c #FE8B28",
"63 c #FE8432",
"64 c #FE833A",
"65 c #FE8B32",
"66 c #FE8A3B",
"67 c #FD9629",
"68 c #FE9931",
"6A c #FDA230",
"6B c #DA8557",
"6C c #C69473",
"6D c #D9966F",
"6E c #DF9971",
"6F c #EA8651",
"71 c #EB8D5A",
"72 c #F4854A",
"75 c #FD8543",
"76 c #FE8B44",
"77 c #FE8C4A",
"78 c #F58753",
"79 c #FE964A",
"7A c #F59E5C",
"7B c #FE9353",
"7C c #FE965B",
"7D c #FE9E57",
"7E c #FE9A5A",
"7F c #EF9463",
"80 c #E59F77",
"81 c #FE8668",
"82 c #FF8C70",
"83 c #FD9963",
"84 c #F59378",
"85 c #FEA545",
"86 c #FDA659",
"87 c #FEB149",
"88 c #FFB45E",
"89 c #FFA96A",
"8A c #FCAA75",
"8B c #FEBA62",
"8C c #FEB875",
"8D c #FEC477",
"8F c #8AAEB8",
"90 c #80B0BB",
"91 c #8EB2BB",
"92 c #9FB6B6",
"93 c #A4B7B7",
"94 c #BAB5AC",
"95 c #80B6C4",
"96 c #87BCC9",
"97 c #9ABCC3",
"98 c #8CC1CE",
"99 c #8DCCDB",
"9A c #93CCDB",
"9B c #84CCE3",
"9C c #82D3EE",
"9D c #89D1E3",
"9E c #8BD5EE",
"A0 c #8AD6F0",
"A1 c #95D6E7",
"A2 c #90D7EF",
"A3 c #93D8EE",
"A4 c #98D6EB",
"A5 c #98D9EC",
"A6 c #93D9F2",
"A7 c #9BDCF3",
"A8 c #A5C9D4",
"A9 c #A7D7E5",
"AA c #ABDCEC",
"AB c #A1DEF3",
"AC c #ACDFF1",
"AD c #B5DDEA",
"AF c #A6E0F4",
"B0 c #AAE1F4",
"B1 c #B2E1EC",
"B3 c #B3E4F5",
"B4 c #BAE6F4",
"B5 c #BEE8F6",
"B6 c #BEE8F8",
"B7 c #C29E85",
"B8 c #C0A28B",
"B9 c #D0A084",
"BA c #D8BEAE",
"BB c #FE9C84",
"BC c #E4A481",
"BD c #EEAA85",
"BE c #EFAF8C",
"BF c #E7B092",
"C0 c #E2B398",
"C1 c #F3AB83",
"C2 c #F2AE89",
"C3 c #FEA18A",
"C4 c #FEAE81",
"C6 c #FDB886",
"C7 c #FEBB94",
"C8 c #FEB7A6",
"C9 c #D5C6B9",
"CA c #FEC88A",
"CB c #FEC698",
"CC c #FED19D",
"CD c #E2C0AC",
"CE c #E3CABA",
"CF c #E8C6B2",
"D0 c #EACAB7",
"D1 c #EBCCBA",
"D2 c #FDC9A6",
"D3 c #F9CBB6",
"D4 c #FED4A9",
"D5 c #FED6B9",
"D7 c #D3DDDE",
"D8 c #D8D7D0",
"DA c #C5DDE3",
"DC c #CBE2E9",
"DD c #C1E7F1",
"DE c #C3E9F5",
"DF c #C4EAF8",
"E0 c #CAECF6",
"E1 c #CDEDF8",
"E3 c #D1ECF4",
"E4 c #D0EEF8",
"E7 c #DDF1F7",
"E8 c #DBF2FA",
"EA c #E8D8CE",
"EB c #E6DBD4",
"EC c #FDCDC1",
"ED c #FCD9C4",
"EE c #FDDDD6",
"EF c #FEE2CC",
"F0 c #FDE6D7",
"F1 c #E2E6E5",
"F2 c #E3E9E9",
"F3 c #ECE6E0",
"F4 c #EDEAE7",
"F5 c #E3F5FB",
"F7 c #E9F6FB",
"F8 c #ECF8FC",
"F9 c #FEECE3",
"FA c #FEF0EA",
"FB c #F1F1F0",
"FC c #F3FAFD",
"FD c #FDF6F6",
"FE c #FFF8F6",
"FF c #FAFDFE",
"   c None",
"                                      08021B1B1B1B1B17040A                                      ",
"                              09199DDDF7FFFFFFFFFFFFFFFFE7B02415                                ",
"                          1526E4FFFFFFFFFFFFFFFFFFFFFFFFFFFFFFFFB11B0C                          ",
"                      0423E7FFFFFFFFFFFFFFFFFFFFFFFFF8FFFFFFFFFFFFF8DD19                        ",
"                    13B5FFFFFFFFFFFFFFF8FFFFFFF8FFFFFFFFFFF8FFF8FFF8FFF5A104                    ",
"                901FF5FFFFFFFFFFF8FFFFFFFFF8FFFFFFFFF8FFF8FFF8FFF8FFF8FFF8DE10                  ",
"              0926F8FFF8FFF8FFF8FFFFF8FFF8FFF8F8F8F8F8F8F8FCF7FCF7FCF8FFF5F8E818                ",
"            0928FFF8FFF8FFF8F8FFF7F8FBF3EFEFD5D5D5D5D5EFF3F7F5F7F7FFF8F8FFF5F5E719              ",
"          0D26F5F8F8F8F8F8F8F8F7F3ECD5EFEFF0FAF0FAF0F0EFD5D5EFF3F5F7F8F7F7F7F8E7E114            ",
"          20F5F8F8F8F5F8F7F7F4ECD5EFF9F9FAFAFAFAF0FAFAFAFAF0EFD5D3F1F5F5F7F5F5E7E7B510          ",
"        13DEF5F5F5F5F5F5F5EAD2ECF0F0F9F0F0F0F0F0F0F0F0F0FAFAF9F0D5C7EAF5E7F5F5E7E8E1A509        ",
"      04A3F5E7E7E7E7E7F5D1C7EDEFF0EFEFEFEFEFEFEFEFEFEFEFEFEFF0F0F0D5C4CFF5E7E7E7E8E4E41F        ",
"      20E4E7E8E8E8E7E7D0C7D5EDEDEDEDEFD5EFD5EFD5D5EFD5D5D5EFEFEFEFEFD28ACFE7E8DEE0E1DEB30F      ",
"    01ABE4E8E8E1E8E1D0C4D2ECD5ECFEF9ECD5D5D4D5D4D5D4D4D4D4D4D4EDEDEDEDC683C9DFE0E1E3B5B525      ",
"    20DEE4E4E8E0E3D8C4C4D2D2D2D2FDFFFFEED3CCCCCCCCCCCCCCCCCCCBCCD5CCD2C67C7CD7E1E1E8B5B5AF10    ",
"  079CE4E4E4E0E0E08A8AC6C7CBCBC7FDFDFDFFFDEED2CACCCACACACACACACAC6C6C6C78A77C1E1E1E1DEB3B114    ",
"  12AFDEDEDEDEDECD83838CC6C68DC6F0FAFAFAFAFAF9ECC68D8D8D8D8D8D8C8CC6CACBC67677D8DFDEDEB3B0290A  ",
"  20B3B5B5B5B5B4837C7E8A8C8C8C89EEEEEEEEEEEEF0EEEEC88A8B8B8B8B88888DC7C78C7B50BDDFDEDEABB0A313  ",
"9027B3B5B5B3B5C97779797E8986887AD3ECECECECECECECECECD3C37A87878785868D8C8A794C7BDAB5B0ABABA314  ",
"0429B0B3B3B3B3BC7576768579858579C8C8C8C8C8C8C8C8C8C8C8C8C784766A6A688889897D4564BAAFA7A7A6A020  ",
"112929A6AFB0B0726464656568686A65BBC3C3C3C3BBC3BBC3C3BBC3BBBB84554A5D85868686424D6EA6A3A69C2925  ",
"142929299CA6A94D4D4F6262626167618184828282828281828181818181817855494A7D7D79433A46A0A0292929270E",
"1429A0299C29973E424545595B5D5E5752555555545454545252525252525252525252817279423A35A0292929292909",
"14A0292929299235353A4444565A5C57383939393939393939393939393939393939398181493335359B292929292905",
"14A0A0A0A0A092353A3A3A4156565641323434343434343434343434343434343434344949343233359B292929292905",
"14A0A0A0A0A09735353A414141565656313131313131313131313131313131313131313131333A35359CA02929A02908",
"14A0A0A0A0A09A35353A3A414156564130313031313131313031313031303031312D313541413A3A3BA02929A029290D",
"15A2A0A0A0A0A03E353A3A41414156412D3130303030303030303030302F312D313A4141413A3A3551A0A0A09CA027  ",
"07A0A6A0A6A0A651353A3A41415656412D2F2F302F302F30302F30302F31313A56565641413A3A356CA0A69CA6A025  ",
"  29A6A6A6A6A6B735353A3A414156412F2F2F2F2F2F2F2F2F2F2F2D313A5C56565641413A3A3A3593A0A0A0A0A01A  ",
"  21A6A6A6A6A6A935353A3A414141412A2F2F2F2F2F2F2F2F2D313A5C5C5C56564141413A3A3548A6A6A6A6A6A015  ",
"  11A7A6A7A6A6A66B353A3A3A4141412C2E2E2E2E2E2E2E2D3A5C5C5C5C5656564141413A3A35B8A6A6A6A6A6298F  ",
"  0AA0A7A7A7A7A7A83E3E3A423A413A2A2C2C2C2E2C2D3A5C5C5C5C5656565641413A3A3A3548A4A6A6A7A6A620    ",
"    1FA7A7A7A7AFAFB93E424242433A2C2C2C2C2D375C5E5C5E5C5A5A5A5658444142423E3E94A7A6A6A6A6A616    ",
"    07A6AFABAFAFAFAC6F404045443C2B2B2D375B5E5E5D5D5D5D5D5D585844444342423E6DAFAFAFA7A7A721      ",
"      1FAFB0AFB3B3B3AD534C4C4E3D2A36595B5B5B625D5D615B5B5B5959594545454071ACAFAFAFAFA7A604      ",
"      0D9EB0B0B4B4B4B3DA724D4F4F635F636562656267656165625F625F5F4E4F4C71ADAFB3B3AFAFAF1A        ",
"        11B0B3DFDFB6B6B6DA7F505064646565656565656565656565646350505080B4B3B6B3B4B3AF28          ",
"          19B3DFDFDFDFDFDFDFC0757564646666666666666666666464646475BAB6B6B6B6B6B6B4A307          ",
"            21DFE1E1E1DFE1DFDFD7BD7777777777767776777777767577BFDCDFDFDFDFDFDFDFB015            ",
"              23E8E8E8E8E8E8E8E8E8E3D0C28383837C837C7C83BECEE1E1E1E1E1E1DFE1E1B411              ",
"                23E7F5F5F5E7F5E7E7E7E7E7F5F1EBEBEAEBF2E7E7E7E8E7E8E8E8E8E8E8DE16                ",
"                  22E7F5F5F5F7F5F5F8F5F5F7F5F5F7F5F5F5F5F5F5F5F5F5F5F5F5F5DE0E                  ",
"                    1CE0FFF7F8F8F8F8F8F8F7F7F7F7F7F7F7F7F8F8F8F7F5F8F7F5AA                      ",
"                        99F5FFFFF8FFF8FFF8FFF8FFF8FFF8FFF7F8F8F8FFF8E396                        ",
"                          8F9AE7FFFFFFFFFFFFFFFFFFFFFFFFFFFFFFFFDE98                            ",
"                                9599DDF7FFFFFFFFFFFFFFFFF5B19991                                ",
"                                        900D1D1D1D1D0D8F                                        "};
