/* XPM */
/* C:\Program Files\Thunder Network\Thunder\ThunderShell.exe */
static char *icon[] = {
"32 32 63 2",
"10 c #63E7FF",
"45 c #6BAEEF",
"48 c #5296E7",
"4C c #4286C6",
"4E c #39B6FF",
"4F c #42C7FF",
"50 c #63FFFF",
"52 c #31D7FF",
"54 c #8CAED6",
"57 c #2979C6",
"58 c #5ADFFF",
"59 c #42D7FF",
"5E c #39DFFF",
"61 c #52D7FF",
"65 c #E7FFFF",
"68 c #31C7FF",
"6A c #00A6FF",
"6C c #08B6FF",
"71 c #0096FF",
"72 c #0871CE",
"75 c #0086FF",
"76 c #1869BD",
"77 c #0079FF",
"78 c #73DFFF",
"79 c #0071FF",
"7B c #1071D6",
"7D c #0069EF",
"7E c #0071E7",
"80 c #528EC6",
"81 c #5A96CE",
"82 c #6B9ECE",
"83 c #9CBED6",
"84 c #7BA6CE",
"85 c #8CB6D6",
"86 c #2196F7",
"87 c #6BA6CE",
"88 c #5296CE",
"89 c #4AE7FF",
"8A c #84AECE",
"8B c #42BEFF",
"8C c #318ECE",
"8D c #1896CE",
"8E c #5ACFFF",
"8F c #A5C7D6",
"91 c #1079CE",
"92 c #42F7FF",
"93 c #52FFFF",
"94 c #31A6EF",
"95 c #29CFFF",
"96 c #9CFFFF",
"97 c #29AEFF",
"98 c #3979C6",
"99 c #18C7FF",
"9A c #0869C6",
"9B c #10BEFF",
"9C c #21D7FF",
"9D c #0079D6",
"9E c #0859B5",
"9F c #0086F7",
"A0 c #21BEFF",
"A1 c #0061DE",
"A2 c #109EFF",
"   c None",
"                                                                ",
"                                                        889A57  ",
"                                                  4C9E7E797976  ",
"                                            819EA17D79777798    ",
"                                      9E7B7BA17979779A80        ",
"                                  989EA17D79799F57              ",
"                            809E7B9F7579797798                  ",
"                        767B944EA277779F4C                      ",
"                    9E9D8E784E75777798                          ",
"                  A14E967875777586                              ",
"                9F78968B79757157                                ",
"              717878977975714C                                  ",
"            754F8E6A77777172                                    ",
"          9FA04F6A757575714C                                    ",
"        9E6C689B717171716A72                                    ",
"        6A9B9B6A6A6A6A6C6C9D                                    ",
"      9A996C9B99999995959C9D                                    ",
"      6A99528989895E5E529184                                    ",
"      995E598D8D8D8D8C88                                        ",
"    575E6884    8A808887888C98                                  ",
"    91934C    4C9495966565651095979861                          ",
"    91588582918D5E929293509393929292896161                      ",
"    84848F8188  8159505050508C8881884C8D52891061                ",
"            84808282455850588A            818C4E598E61          ",
"            8A4C528B88548284                    828C8D57        ",
"              834F508988                                        ",
"                874C884E82                                      ",
"                      828684                                    ",
"                        844885                                  ",
"                          824583                                ",
"                            8081                                ",
"                                                                "};
