/* XPM */
/* C:\windows\system32\shell32.dll */
static char *icon[] = {
"32 32 7 2",
"00 c #000000",
"2B c #333333",
"56 c #666666",
"81 c #999999",
"AC c #CCCCCC",
"D7 c #FFFFFF",
"   c None",
"                                                                ",
"                                                                ",
"                                                                ",
"                                                                ",
"              81818181818181818181818181                        ",
"              56D7D7D7D7D7D7D7D7D7D7D78156                      ",
"              56D7D7D7D7D7D7D7D7D7D7D781AC56                    ",
"              56D7D7ACD7D7D7ACD7D7D7D781ACAC56                  ",
"              56D7D78181ACD7D7D7D7D7D781D7ACAC56                ",
"              56D7D7D7D7D7D7D7D7D7D7D756562B2B2B2B              ",
"              56D7D7AC818181818181D7D7D7AC81565656              ",
"              56D7D7D7D7D7D7D7D7D7D7D7D7ACAC81565600            ",
"              56D7D781D7D78181D7D7D7D7D7D7ACAC815600            ",
"              56D7D78181818181818181818181D7ACAC5600            ",
"              56D7D7D7D7D7D7D7D7D7D7D7D7D7D7D7AC5600            ",
"              56D7D78181AC8181818181818181D7D7AC5600            ",
"              56D7D7D7D7D7D7D7D7D7D7D7D7D7D7D7AC5600            ",
"              56D7D7818181818181AC81818181D7D7AC5600            ",
"              56D7D7D7D7D7D7D7D7D7D7D7D7D7D7D7AC5600            ",
"              56D7D78181818181818181818181D7D7AC5600            ",
"              56D7D7D7D7D7D7D7D7D7D7D7D7D7D7D7AC5600            ",
"              56D7D781AC8181818181818181ACD7D7AC5600            ",
"              56D7D7D7D7D7D7D7D7D7D7D7D7D7D7D7AC5600            ",
"              56D7D7D7D7D7D7D7D7D7D7D7D7D7D7D7AC5600            ",
"              56ACACACACACACACACACACACACACACACAC5600            ",
"              56565656565656565656565656565656565600            ",
"                  0000000000000000000000000000000000            ",
"                                                                ",
"                                                                ",
"                                                                ",
"                                                                ",
"                                                                "};
