/* XPM */
/* C:\MULTIBOOT\uninstal.exe */
static char *icon[] = {
"32 32 43 2",
"02 c #008000",
"04 c #000080",
"07 c #C0C0C0",
"08 c #C0DCC0",
"0A c #040404",
"0E c #161616",
"10 c #222222",
"11 c #292929",
"12 c #555555",
"13 c #4D4D4D",
"14 c #424242",
"15 c #393939",
"1A c #EFD6C6",
"1B c #E7E7D6",
"1C c #ADA990",
"27 c #006600",
"43 c #333333",
"49 c #336633",
"4F c #339933",
"50 c #669933",
"6D c #666666",
"72 c #669966",
"73 c #999966",
"92 c #999999",
"98 c #99CC99",
"99 c #CCCC99",
"BC c #CCCCCC",
"C3 c #FFFFCC",
"EA c #5F5F5F",
"EB c #777777",
"EC c #868686",
"ED c #969696",
"EE c #CBCBCB",
"EF c #B2B2B2",
"F0 c #D7D7D7",
"F1 c #DDDDDD",
"F2 c #E3E3E3",
"F3 c #EAEAEA",
"F4 c #F1F1F1",
"F7 c #A0A0A4",
"FC c #0000FF",
"FF c #FFFFFF",
"   c None",
"                                      0A0A0A    0A0A0A0A0A0A0A  ",
"                                    0AECFF0A  0AECECECECECECEC0A",
"                                  0AECFFFF0A  ECFFFFFFFFFFFF070A",
"                                0AECFFFF070A0AECFFFFFFFFFFFF070A",
"                              0AECFFFF07EC070AECFFFFFFFFFFFF070A",
"                  EB          0AFFFF07EC0707070AECECECECECEC0A0A",
"                EBC3EB        0AEC07ECECECECECECEC07FFFFFF0A040A",
"              11C3C3EBEB        0AEBECFFFFFFFFFFFF0707FF0A04040A",
"        1111110AC3C3C3C3EB    EBEBC3EBFFFFFFFFFFFF0A070A0404040A",
"  1111110A0A0AC3C3C31B1A111111C3C3C3EBFFFFFFFFFFFF0A0A040404040A",
"0A0A0A0A0A0A1B1A1B1A1A1A14991A1AC3C3C3EBFCFCFCFCFC0A04040404040A",
"92FFFFFF0A0A0A0A1A1A08EE99EA6D991A1AC31111FCFCFCFC0404040404EC0A",
"92070707FFFFFF0A0E10439999EA999999999292921111FCFC0404040407EC0A",
"92F31B1B070707FFFFFF4314126DEB999999999292FF11FCFC0404040707EC0A",
"921B1B1B1B1BF3070707FFFFFF6DEC99ED9292FFFF11FCFCFC0404070707EC0A",
"921B1B1B1B1B1B1B1B1B070707FFFFECFFFFFFEB6D11FCFCFC0407070707EC0A",
"921B1B1B1BEE02021C1B1B1BF00707FFEBEBEB6DEA11FFFFFFECEFEFEF07EC0A",
"  1C1B50021B1B024F9850F0F0F0EBEBEBEBEB6D1211FFFFF4ECEFEFEFEFEC0A",
"  925002021B1B1B024F4FF0BCBCEBEBEBEB6DEA11FFFFF4F3EC92F7F7F7EC0A",
"  921B020202F0F04F0202BCBCEEEBEBEBEB6D1211FFF4F3F2ECED9292EC0A  ",
"  921B0272F0F0F0730249EEEEEEEBEBEB6DEA1411F4F3F2F0ECECECEC0A    ",
"  92F002F0F0BCBCBCEEEEEEEE07EBEBEB6D1211F4F3F2F0BCECECEC0A      ",
"  92F002BCBCBCEEEEEEEE0707EBEBEB6DEA1311F3F1F0BC07ECEC0A        ",
"    1CBC02EEEEEE7207074907EBEBEB6D1215110707070707EC0A          ",
"    92EEEEEEEEED4F070749EFEBEB6DEA14110A0A0A0A0A0A0A            ",
"    92EEEE72020250EC0227EFEBEB6D121511                          ",
"    EC070707070202020272EFEB6DEA144311                          ",
"      EC1CEFEFEF024FEFEFEBEB6D121511                            ",
"        ECEC1CEFEF50EFEFEB6DEA144311                            ",
"            ECEC1CEFEFEFEB6D12151111                            ",
"                ECEC1CEF6DEA1111                                ",
"                    ECEC1111                                    "};
