/* XPM */
/* C:\Program Files\FlashGet\flashget.exe */
static char *icon[] = {
"48 48 205 2",
"01 c #630E00",
"02 c #680F00",
"03 c #731200",
"04 c #7B1400",
"06 c #831600",
"07 c #8B1800",
"08 c #931B00",
"09 c #9E1D00",
"0A c #9F2800",
"0B c #B41D00",
"0C c #A52800",
"0D c #A2290D",
"0E c #AC2300",
"0F c #AF2900",
"10 c #AD3500",
"11 c #AB3A00",
"12 c #B32400",
"13 c #B32A00",
"14 c #BC2A00",
"15 c #B23D00",
"16 c #BC3000",
"17 c #BA3E00",
"18 c #AE4A00",
"19 c #B74C00",
"1A c #BF4000",
"1B c #B05000",
"1C c #AF7800",
"1D c #A36E34",
"1E c #845953",
"1F c #8E6E69",
"21 c #C71500",
"22 c #C41900",
"23 c #C81700",
"24 c #C32100",
"25 c #CB2300",
"26 c #CD2C00",
"27 c #C33400",
"28 c #C23900",
"29 c #D03500",
"2A c #D23D00",
"2B c #D03E05",
"2C c #C34200",
"2D c #C34D0B",
"2E c #C94300",
"2F c #CB4B00",
"30 c #C45300",
"31 c #CE5400",
"32 c #CC5900",
"33 c #C55315",
"34 c #D34200",
"35 c #D64B00",
"36 c #D55101",
"37 c #D2590C",
"38 c #D85400",
"39 c #DA5B00",
"3A c #CB6C0B",
"3B c #CB6C13",
"3D c #DD6500",
"3E c #DE6D00",
"3F c #D8611A",
"40 c #DF7100",
"41 c #CC6F24",
"42 c #CD712C",
"43 c #CD7233",
"44 c #CE743C",
"45 c #DF6C2C",
"46 c #E36300",
"47 c #E66900",
"48 c #E66A07",
"49 c #E46510",
"4A c #E26219",
"4B c #E66B1C",
"4D c #E07500",
"4E c #E27900",
"4F c #E87500",
"50 c #E97B00",
"51 c #E87C08",
"52 c #E97C13",
"53 c #E97D1D",
"54 c #E87F25",
"55 c #EA7C28",
"56 c #E27135",
"57 c #E2753C",
"58 c #E47C3D",
"59 c #EA7D30",
"5A c #EA7D3B",
"5B c #D07740",
"5C c #D17944",
"5D c #D37D4A",
"5E c #D87A45",
"5F c #E17540",
"60 c #E27D49",
"61 c #B58300",
"62 c #B08655",
"63 c #B89367",
"64 c #BA956A",
"65 c #BD986E",
"66 c #C49A00",
"67 c #CE9900",
"68 c #E68500",
"69 c #E68900",
"6A c #EB8101",
"6B c #EB820D",
"6C c #E88D00",
"6D c #EB8217",
"6E c #E99100",
"6F c #EB9800",
"70 c #EB8220",
"71 c #EB8331",
"72 c #E98339",
"73 c #ED982C",
"74 c #EE9930",
"75 c #E7AD02",
"76 c #EEA100",
"77 c #F0AA00",
"78 c #F6B800",
"79 c #D58142",
"7A c #D5814D",
"7B c #D88447",
"7C c #D68352",
"7D c #C99F74",
"7E c #DCA478",
"7F c #E4834D",
"80 c #EA8344",
"81 c #E98648",
"82 c #E9884C",
"83 c #E38452",
"84 c #E48854",
"85 c #E38C5D",
"86 c #EA8D52",
"87 c #E98F59",
"88 c #EA9057",
"89 c #E49063",
"8A c #E4956A",
"8B c #EA9461",
"8D c #EA996B",
"8E c #E59A72",
"8F c #E59E7A",
"90 c #EFA247",
"91 c #F1A047",
"92 c #F1A249",
"93 c #F1A352",
"94 c #F2A55C",
"95 c #F2A863",
"96 c #F3AB6B",
"97 c #F1A579",
"98 c #F2AC73",
"99 c #E8C400",
"9A c #EECD00",
"9B c #EFC513",
"9C c #F8C000",
"9D c #F4D200",
"9E c #F3D00F",
"9F c #F9D400",
"A0 c #FFEF00",
"A1 c #FFF100",
"A2 c #FFF30B",
"A3 c #FFF314",
"A4 c #FFF319",
"A5 c #FFF423",
"A6 c #CFAA86",
"A7 c #CDB598",
"A8 c #D5AB86",
"A9 c #DCAC86",
"AA c #E6A384",
"AB c #E6A589",
"AC c #E1AE86",
"AD c #ECA480",
"AE c #EEAA83",
"AF c #E4B28E",
"B0 c #E7B695",
"B1 c #E9BB9C",
"B2 c #F2AC85",
"B3 c #F3AE88",
"B4 c #F3B183",
"B5 c #F3B28C",
"B6 c #F3B693",
"B7 c #F5B897",
"B8 c #F4BB9B",
"B9 c #ECBFA4",
"BA c #F5BFA0",
"BB c #D6C3AB",
"BC c #DAC7B0",
"BD c #DFCDB8",
"BE c #EEC2AA",
"BF c #EDCAB3",
"C0 c #E6D0BB",
"C1 c #EAD1BC",
"C2 c #F5C1A4",
"C3 c #F6C5AA",
"C4 c #F6CAB1",
"C6 c #F8CDB5",
"C7 c #F8CEB8",
"C9 c #F8D1BC",
"CA c #EDD6C4",
"CB c #EFD8C8",
"CC c #F0D6C3",
"CD c #F8D5C2",
"CE c #F9D8C6",
"CF c #F9DCCC",
"D0 c #FAE1D3",
"D1 c #F2F2EE",
"D2 c #F8F8F6",
"D3 c #FAFAF8",
"   c None",
"                                                                                                ",
"                                                                                                ",
"      0D090909090909090909080909090909090909090909090909090909090909090909090909090909090D      ",
"    082D5A575F5F60608383848585858A8A8E8E8F8FAAAAABABABABADAB8F8F8E8A89858483605F57565645330D    ",
"    095A58817F84878B8D8EADAEB6B0BABEBEBFC7CBCDCFCDCFCDCCCCC7C4BEBAB8B6B2AD8E8D8B868480815F08    ",
"    0981B2804A2A292A292A292A292A292A292A292A292A292A2B292A292A292A292A292A292A292A495AB25F09    ",
"    085AB2804A25252525252525252525252525252525252523252525252525252525252525252525495AB24408    ",
"    0881B2804B23212121212121212121212121212121212121212121212121212121212121212121495AB55F08    ",
"    0881B5804B23212121212121212121212121212121212123212121212121212121212121212121495AB65F08    ",
"    0881B7804B23212121212121212123212323232325232523232121212121212121212121212121495AB85E08    ",
"    0881BA814B2321212121230B1D636364646464656565656565656464646463620E212121212121495AC25E08    ",
"    0882C2804B2321212121210EBCD1D1D3D1D3D3D3D3D3D3D3D3D3D3D2D1D1D1BD0C212121212121495ABE7A08    ",
"    0882C3804B2321212121212211C0D1D1D3D3D3D3D3D3D3D3D3D3D3D1D2D1C01122212121212121495AC65E08    ",
"    0786C6804B232121212121212215C0D1D3D2D3D3D3D3D3D3D3D3D3D1D1C0152222232123232121495AC67A08    ",
"    0886C9814B23212121212121212217C1D1D3D2D2D3D3D3D3D3D3D1D2C11A222221222321222321495ACD7A08    ",
"    0786C9804B232121212121212121221AC1D2D2D3D2D3D2D3D3D1D2C12C22212121212121212121495ACD7C07    ",
"    0788CF814B23212121212121212121222CC1D2D1D3D2D3D3D1D3C12C2423212121212121212121495ACF7A07    ",
"    0788CF804B23212121212121212121212230CAD1D2D1D3D1D1CA2F242223212121212121212121495AD07A07    ",
"    078BD0814B232121212121210B0B0B0B0B1331CCD1D2D1D2CB37130B0B0B0B0B22212121212121495AD07C07    ",
"    0788D0814B2321212121230EA6BBBCBCBCBC7E37CBD1D1CB3F79BCBCBCBBBBA70A212121212121495AD07C07    ",
"    0688D0804B232121212121127DD1D1D1D3D3D37E3FBEBF457BD3D3D2D1D1D1A612212121212121495AD07A06    ",
"    0688CF804B2321212121212112A8D1D3D1D3D3D3792E2E79D3D3D3D1D2D1A80F21212121212121495ACF7A06    ",
"    0688CF814B232121212121212113A9D1D3D1D3D3D3CCBFD3D3D3D1D3D1A9132321212121212121495ACE7A06    ",
"    0688CD814B23212121212121212114A9D1D3D3D3D3D3D3D3D3D3D1D2A916222321212121212121495ACD7A06    ",
"    0686CD814B2321212121212121212116ACD1D3D1D3D3D3D3D1D2D1AC1622232123212121212121495ACD5D06    ",
"    0686CD814B232121212121212121212227AFD1D3D3D3D1D3D3D1AF282221222122212121212121495AC75D04    ",
"    0486C7804B23212121212121212121212227B0D1D1D1D2D1D1B12E222121212121212121212121495AC65D06    ",
"    0486C6804B232121212123232121212121222CB1D1D1D1D1B12F22212121212121212121212121495AC45C04    ",
"    0486C6814B232121212121121C666666666667318ED1D1B936676666666666610F212121212121495AC35D04    ",
"    0482C3804B2321212121211399A1A1A1A1A1A29E3D8EAD3675A1A1A1A1A1A09A10212121212123495AC35D04    ",
"    0382C3814B212321212123251A9AA1A1A1A1A1A49B2C2C75A3A1A1A1A1A19F1921232323212121495AC25B04    ",
"    0482C2814B2121212323232325309FA1A1A1A1A2A4A5A5A4A2A1A1A1A19A302525232323232321495ABA5B03    ",
"    0382BA814B232323232325252525369FA1A1A1A1A2A2A2A2A1A1A1A09F32262525252323232323495AB85B04    ",
"    0381B7814B23232325252525252529399FA1A1A1A1A1A1A1A1A1A19F3926252525252525232323495AB74403    ",
"    0381B781482323252525252626262629399FA1A1A1A1A1A1A1A19F3D2A26262625252525252325465AB64403    ",
"    0381B6724725252525252626262629292A399FA0A1A1A1A1A09F393429292926262625252525234759B54403    ",
"    0272B5714725252526252929292A2A2A2A35479DA0A1A1A09F3D352A29292929292626262525254655B34403    ",
"    0372B4704D252526262929292A2A342A343538479FA1A09F47383434352A2A2A292926262625254753974303    ",
"    027198704726262629292A2A343434353635353D47789C47473636363434342A2A2929292626254752984202    ",
"    0254966D47262629292A2A3434353538383838384D4F4F4D38383838383634352A2A29292926264651964102    ",
"    0253956B4726292A2A343435353538393939393D393E3D3D393939393838363634352A2A292926474F944102    ",
"    0252936A4D29292A3434363538393939393D3D3D3D3D3E3D3D3D3D39393938383635342A2A29294650933B02    ",
"    0251926A47292A343436383839393D3D3E3E3E3E4D4D4D4D3E3E3E3E3D3D3939383636342A2A294750913A02    ",
"    0150906E683E3E4D4D4E4E6869696E6E6F6F6F767676767776766F6F6E6E69684E4E3E3E3E3D3D4E6C903A01    ",
"    0118746E683E404D4E4E6869696E6E6F6F767676777777777777766F6F6E69694E4E4D3E3E3E3E4E6C731B01    ",
"    1E0101010101010101010101010101010101010101010101010101010101010101010101010101010101011F    ",
"                                                                                                ",
"                                                                                                "};
