/* XPM */
/* E:\apps\RaySource\RaySource.exe */
static char *icon[] = {
"48 48 206 2",
"00 c #000000",
"03 c #050505",
"04 c #060902",
"08 c #0C0F06",
"09 c #090909",
"0A c #090D09",
"0D c #0E110E",
"0E c #0D140D",
"0F c #101507",
"10 c #111508",
"11 c #131906",
"13 c #181E0B",
"14 c #121211",
"16 c #111A11",
"17 c #1B1B1B",
"19 c #17230B",
"1A c #1A220D",
"1C c #162016",
"1D c #1F2710",
"1E c #212C0E",
"1F c #232C11",
"20 c #27350D",
"22 c #263912",
"23 c #283413",
"24 c #2C341F",
"25 c #2D3A16",
"27 c #212121",
"28 c #282828",
"29 c #2F2F2F",
"2A c #273B27",
"2B c #2C332C",
"2D c #363636",
"2E c #3C3C3C",
"30 c #1E5001",
"31 c #2C4215",
"32 c #215300",
"33 c #265901",
"34 c #2B5E02",
"35 c #344219",
"36 c #364C16",
"37 c #38471D",
"3A c #3D5315",
"3B c #3C521C",
"3C c #3E5D1E",
"3D c #334733",
"3E c #3F5020",
"3F c #2B6101",
"40 c #316304",
"41 c #37660A",
"42 c #346903",
"45 c #3A7302",
"46 c #3E700C",
"49 c #425A16",
"4A c #43591D",
"4C c #455823",
"4D c #495C25",
"4F c #4B631E",
"51 c #427903",
"52 c #43780B",
"53 c #4E7E17",
"54 c #506B1E",
"55 c #58771F",
"58 c #4E6228",
"59 c #496D22",
"5A c #4B7225",
"5B c #516629",
"5C c #536B27",
"5D c #546A2B",
"5E c #586F2D",
"5F c #547E29",
"61 c #5A732D",
"62 c #5B7A25",
"63 c #5E7C2C",
"64 c #5C7530",
"65 c #5E7830",
"66 c #607F28",
"67 c #627C32",
"68 c #434343",
"69 c #4F4F4F",
"6A c #5A5A5A",
"6B c #5F6B5F",
"6C c #606060",
"6D c #666666",
"6E c #6F6F6F",
"6F c #697D69",
"70 c #727372",
"71 c #727470",
"72 c #767676",
"73 c #4E8605",
"74 c #4D820E",
"75 c #4D8A03",
"76 c #4D8011",
"77 c #528E02",
"78 c #578E0E",
"7A c #558B12",
"7B c #598B19",
"7C c #569003",
"7D c #579409",
"7E c #589500",
"7F c #5A9409",
"80 c #5D9B02",
"81 c #5D9213",
"82 c #609D01",
"83 c #669F0F",
"84 c #64961F",
"86 c #639818",
"87 c #65842D",
"88 c #638B24",
"89 c #668B2B",
"8A c #6B8E25",
"8B c #658134",
"8C c #698535",
"8D c #6B8A31",
"8E c #6E8B38",
"8F c #649421",
"90 c #63922D",
"91 c #669824",
"92 c #679A2F",
"93 c #6F932F",
"94 c #6B9C24",
"96 c #639530",
"97 c #659831",
"9A c #709F27",
"9D c #73933A",
"9E c #729A31",
"9F c #78973D",
"A0 c #789C34",
"A1 c #7B9C3D",
"A2 c #64A202",
"A4 c #69AA01",
"A5 c #69A808",
"A6 c #67A011",
"A7 c #6DA612",
"A8 c #6DA21C",
"A9 c #6EB000",
"AB c #72A81C",
"AD c #73B20A",
"AE c #75B901",
"AF c #78BC02",
"B0 c #7CBC0D",
"B1 c #74B112",
"B2 c #75B019",
"B3 c #7BB714",
"B4 c #7BB31C",
"B6 c #6EA123",
"B7 c #6DA12E",
"B8 c #72A325",
"B9 c #73A32A",
"BA c #75A923",
"BC c #7AAE25",
"BD c #7CAB2C",
"BE c #71A332",
"C0 c #7BAB32",
"C3 c #7C9E40",
"C4 c #728B72",
"C5 c #7F967F",
"C6 c #7FA140",
"C8 c #7FC308",
"C9 c #82BF16",
"CA c #84BD1F",
"CC c #80AD37",
"CD c #80B424",
"CE c #84B42C",
"CF c #85BD23",
"D0 c #85BA2A",
"D1 c #8ABF2B",
"D2 c #81B233",
"D4 c #89B636",
"D5 c #89B23C",
"D6 c #8BB934",
"D8 c #90BE3D",
"DB c #89AD46",
"DD c #8DB348",
"DE c #90B749",
"DF c #91BB44",
"E1 c #81C30B",
"E2 c #84C312",
"E3 c #86C219",
"E4 c #88C31D",
"E5 c #89C323",
"E6 c #8CC32B",
"E7 c #8FC330",
"E8 c #90C334",
"E9 c #93C33B",
"EA c #95C342",
"EB c #97C24A",
"EC c #98C348",
"ED c #858585",
"EE c #949494",
"EF c #9A9A9A",
"F0 c #A3A3A2",
"F1 c #ABABAB",
"F2 c #B7B7B7",
"F3 c #BDBDBD",
"F4 c #B8C999",
"F5 c #C4C4C4",
"F6 c #CACACA",
"F7 c #D4D4D4",
"F8 c #DCDCDC",
"F9 c #E2E2E2",
"FA c #E5E5E5",
"FB c #EAEAEA",
"FD c #F0F0F0",
"FE c #F8F8F8",
"FF c #FFFFFF",
"   c None",
"        6C6C6C6C6C6C6C6C6C6C6C6C6C6C6C6C6C6C6C6C6C6C6C6C6C6C6C6C6C6C6C6C6C6C6C6C6C6C72          ",
"    270000000000000000000000000000000000000000000000000000000000000000000000000000000014        ",
"  2700000000000000000000000000000000000000000000000000000000000000000000000000000000000000      ",
"  00000000000000000000000000000000000000000000000000000000000000000000000000000000000000002B    ",
"6C000000000000000000000000000000000000000000000000000000000000080000000000000000000000000014    ",
"6C0000000000000000000000000000000000000000000000001E375C8B9DA1A1A1C3A18C5B350800000000000014    ",
"6C00000000000000000000000000000000000000081D5493D8E9E9EAEADFA1634C251A0F0000000000000000000A    ",
"6C00000000000000000000000000000000082055BDE7E7E7E6E7E8D49D878B8C8C8C645D371A000000000000000E    ",
"6C00000000000000000000000000001158B9E7E6E4E4E4E5E5E6E7E8E9EADFC68C5D4C351F1F000000000000000E    ",
"6C0000000000000000000000001362D2E5E2C8E1E1E2E2E3E3E5E6D89D614D4C584D4C35230E0000000000000014    ",
"6C000000000000000000000854BDCDB3B0B0C8C8C8E1E2E4E4E4E7E8E9EAEBDEDB9F645B4C350F0000000000000A    ",
"6C000000000000000000239ECEB2B1ADAFAFC8C8C8C8E2E4E4E6E7D88D4C2310000000000000000000000000000E    ",
"6C00000000000000003EC0BAA7A5A9A9AFAFAFC8C8E2E2E4CD88583131353535231A0E000000000000000000000E    ",
"6C0000000000000037BDABA6A2A2A9A9A9AFC8C8C8B2B4E7CFD0D1D2D5C0BEC0C0C0A0893708000000000000000E    ",
"6C0000000000001ACCB8837F82A2A5A9AFAEA57DABD0D2C0C0C0C0B7B7B7B7915342467BC09E1D00000000000014    ",
"6C00000000000037BD847F7E82A2A9A2754586843B0800000004132259909797B7A8423240929E0000000000000A    ",
"6C0000000000005C9A817C7E827D453F74B9590400000000000000000019979797AB4232307BC01300000000000E    ",
"6C000000000000619A7F7C7742323F849A3C0000000000000000000000005F979A7A32303281B81D00000000000E    ",
"6C000000000000639A785130304094975F0400000000000000000000000E96928133303373819E20000000000014    ",
"6C0000000000005E9A7630303486B7973B00000000000000000000000459927A333345777781B82300000000000A    ",
"6C00000000000058B941303078B697975A00000000000000000000045A9A52344580807E7D81B91A00000000000E    ",
"6C00000000000025CC53323278BAB797975F311308000000001036947A4575A4A4A2807E7F86BD0800000000000E    ",
"6C000000000000095DC08F46405284B9BEBEBEB7928A8888B9BA867DA5AEAEA9A4A2808086AB8900000000000014    ",
"6C00000000000000002462A0D2B99484B8B8BCD0E6E6E6CAB2B1B0C8AFAFAEA9A4A2A283ABB91D0000000000000A    ",
"6C00000000000000000000001323374A4A4A49495488B4E4E2E2C8C8C8AFAEA9A983A7B29E1D000000000000000E    ",
"6C00000000000000000000000000000F1D3B66BDD1E6E4E4E2E1E1C8C8AFAEAEB1B1BC661900000000000000000E    ",
"6C000000000000001D23374C5E8CA1DEECEAE9E7E6E4E4E2E2E2E1C8C8AFB0B3B4BD3A080000000000000000000E    ",
"6C00000000000000031F3E585E5E61616187A0D6E6E4E4E4E2E1E1E1E1C9CABC540F000000000000000000000014    ",
"6C000000000000000A101A23374D649FD5D8E8E7E7E6E4E4E4E4E4E4E6B84F11000000000000000000000000000A    ",
"6C0000000000000010375D8C9DC3C39F8E8EA0D8E7E7E7E6E7E7CE6220080000000000000000000000000000000E    ",
"6C0000000000000000000A0E131F3E5B9FD8EAE9E9E9D49E5423000000000000000000000000000000000000000D    ",
"6C00000000000000133E659FC6DDDDDBDBC69D614C2310000000000000000000000000000000000000000000000D    ",
"6C00000000000000000000000000000000000000000000000000000000000000000000000000000000000000000D    ",
"6C000000000000000000000000000000000000000000000000000000000000000000000000000000000000000010    ",
"6C00000000000000000000000000000000000000000000000000000000000000000000000000000000000000000A    ",
"6C0000002D707272706800000000000000000000000000000000000000000000000000000000000000000000000E    ",
"6C000000EDFFFDFAFFFF2E000000000000000000000000000000000000000000000000000000000000000000000A    ",
"6C000000F1FFED28F8FF6CEEF5F5F070F1690AF0F05D613E0E58613E231F001F6761614C0E5861374C64614D000A    ",
"6C000000F6FFF8F8FFF372F7EDF1FFF2FFEE6AFFF437085B8B1F04678C1F004DDD0E089F8E1F005E9D0A0800000E    ",
"6C00000AFAFFF1FFFB2868F0F7FEFF6EFBF5F5F9249D673E6100004CDB130067DD5E676765000008C35E641A000A    ",
"6C000027FBFF14F5FFF3FBFA68F6FF2DF3FEFF7137001FC66100008BA10800A18B108B3E5E00046161080800000E    ",
"6C00002EFFFB006CFFFFFFFFF8FAFF1772FFF8146467673E8B648B375D678C5D5D00238C8E648E58C68B8B13000A    ",
"7000000017140000171414290A0A276DF2FF6C000008000000080000000800000000000000080000000000000016    ",
"  0A00000000000000000000000017FAFAEF0000000000000000000000000000000000000000000000000000003D    ",
"  6B000000000000000000000000000A0A00000000000000000000000000000000000000000000000000000016      ",
"    6F1C0A0A0A0A0A0A0A0A0A0A0A0A0A0A0A0A0A0A0A0A0A0A0A0A0A0A0A0A0A0A0A0A0A0A0A0A0A0A0E2AC4      ",
"          C5C5C5C5C5C5C5C5C5C5C5C5C5C5C5C5C5C5C5C5C5C5C5C5C5C5C5C5C5C5C5C5C5C5C5C5C5            ",
"                                                                                                "};
