/* XPM */
/* E:\apps\iTudou\iTudou.exe */
static char *icon[] = {
"32 32 203 2",
"01 c #01B800",
"02 c #09B800",
"03 c #26B104",
"04 c #05C900",
"05 c #0CCF00",
"06 c #06D200",
"08 c #14D400",
"09 c #1ADC00",
"0A c #24D115",
"0B c #3ECD30",
"0C c #3ED523",
"0D c #22E400",
"0E c #24EE00",
"0F c #35ED00",
"10 c #3AE000",
"11 c #3AED00",
"12 c #42DA24",
"13 c #45D239",
"14 c #40F104",
"15 c #5BEF00",
"16 c #53F106",
"17 c #51F20C",
"18 c #7FF500",
"19 c #77F728",
"1A c #78F623",
"1B c #78F636",
"1C c #5BDA44",
"1D c #5FD84F",
"1E c #68D667",
"1F c #A07063",
"20 c #E23900",
"23 c #E23E0A",
"24 c #C46527",
"25 c #DB7E20",
"26 c #DD7631",
"2A c #E64A00",
"2C c #E84500",
"2E c #EE4E00",
"2F c #E14111",
"30 c #E24D1B",
"31 c #E7530C",
"32 c #E3580F",
"33 c #ED5000",
"35 c #EC5B00",
"36 c #EB5808",
"37 c #F05200",
"3C c #F55E00",
"3D c #E35321",
"3E c #EF6400",
"3F c #E9760D",
"40 c #EF7D11",
"41 c #F56300",
"44 c #F56C00",
"45 c #F86300",
"48 c #FE6C00",
"4A c #F37602",
"4D c #F77900",
"4E c #FF7100",
"4F c #F97900",
"52 c #F3701E",
"53 c #EE6526",
"54 c #EB602E",
"55 c #EC6331",
"56 c #E57E3C",
"57 c #EF753C",
"58 c #EF7C36",
"5A c #F06A25",
"5B c #F67921",
"5C c #DF7C53",
"5D c #E67151",
"5E c #E57658",
"5F c #E07D5C",
"61 c #EA7260",
"62 c #96A354",
"63 c #B58D56",
"64 c #9CF859",
"65 c #8EED74",
"66 c #86F47C",
"67 c #A2FA53",
"68 c #B3FB5C",
"69 c #B9FB7C",
"6A c #EA850C",
"6B c #EA8D08",
"6C c #EF821C",
"6D c #EA910C",
"6E c #F48303",
"6F c #F0800E",
"70 c #F48903",
"73 c #FB8600",
"76 c #F98902",
"79 c #F79300",
"7A c #FE9100",
"7D c #FF9F00",
"7E c #FF990A",
"7F c #EF8225",
"80 c #EF8036",
"81 c #E88339",
"82 c #EF9527",
"83 c #F78137",
"84 c #F2803A",
"85 c #F7A400",
"86 c #F5AA00",
"87 c #F2AF0E",
"88 c #FBA300",
"8A c #FAAD00",
"8D c #F7BF00",
"8F c #FFB700",
"90 c #FABB00",
"92 c #FFB818",
"93 c #F2B22B",
"94 c #FFB732",
"95 c #D8815A",
"96 c #C08D7B",
"97 c #C79466",
"98 c #DE8666",
"99 c #E78141",
"9A c #EE814B",
"9C c #E2845A",
"9D c #EF8F50",
"9E c #EB8760",
"9F c #EA8F67",
"A0 c #E08875",
"A2 c #E98B79",
"A3 c #E79578",
"A4 c #F99F67",
"A5 c #F09976",
"A6 c #F4AB4A",
"A7 c #FFA84B",
"A8 c #F3B241",
"A9 c #E7A06C",
"AA c #F4AE6A",
"AB c #FDA360",
"AC c #FEA76B",
"AD c #FFAD68",
"AE c #FFAF71",
"AF c #FFBE6D",
"B0 c #FBC700",
"B2 c #FFC50A",
"B3 c #FFC800",
"B4 c #FFC131",
"B5 c #FEE200",
"B6 c #FFEC00",
"B7 c #FFC94F",
"B8 c #FFE067",
"B9 c #FFE76D",
"BA c #8FACBF",
"BB c #9BA9B2",
"BC c #9AADBC",
"BD c #B0AA9C",
"BE c #A1A6A2",
"BF c #A0B0B3",
"C0 c #A2B1B9",
"C2 c #ADB6BA",
"C3 c #9AB3C6",
"C4 c #A0B5C5",
"C5 c #AFBAC0",
"C8 c #B1BEC6",
"C9 c #B4BDC1",
"CA c #B2C0C6",
"CD c #BDC5C4",
"CE c #B9C2C8",
"CF c #B8C7CE",
"D0 c #B1C5D2",
"D1 c #B8CBD4",
"D3 c #BECCD3",
"D5 c #BACED8",
"D6 c #BFD2DA",
"D7 c #A9CFEE",
"D8 c #CEAD86",
"D9 c #E29680",
"DA c #EF9F84",
"DB c #F5B28F",
"DC c #FBB280",
"DD c #CDC1AD",
"DE c #CAFD8E",
"E0 c #D8FCA7",
"E1 c #FFDB8B",
"E2 c #FFDBA1",
"E3 c #FFED93",
"E4 c #FFEEAF",
"E5 c #F8FEBB",
"E6 c #C1CCD1",
"E8 c #C8D7DD",
"E9 c #DCD3C1",
"EA c #C5D7E0",
"EB c #C6DCE9",
"EC c #D2E0E6",
"ED c #DAE2E6",
"EE c #DAE4E9",
"EF c #DFE9EE",
"F1 c #E3FDC1",
"F2 c #EBFED6",
"F3 c #F9FFCA",
"F4 c #F0FEDD",
"F5 c #E7EEF2",
"F6 c #E9EFF2",
"F7 c #E9F1F4",
"F8 c #ECF2F6",
"F9 c #FFFEEF",
"FA c #F2F6F7",
"FC c #F4F8FB",
"FD c #F9FAFB",
"   c None",
"                                66                              ",
"                        E0681810021C                            ",
"                    F3F4F16815080165                            ",
"                  E5F2F1DE1A0D0504                              ",
"                  E0E0691911090603                              ",
"                67641B170F0D080A62                              ",
"              16140E0E0E0D0813  D8                              ",
"                1D120C0B1E      9796                            ",
"                                631F                            ",
"                            AEAD2524                            ",
"                      948A887D7A76734F5B                        ",
"                  B7B08F8A8A7D76734F4844445A                    ",
"                E1B8B2906B2698D9A39A5B48373C36                  ",
"              E2F9B98795              DB522E332A                ",
"            AFE4E3A8                      842C2E3D              ",
"            92B493      FDFD                54202AA2            ",
"          A7888A        FDFDFC                202C30            ",
"          7E7D82        FDFAF8F7EF            61202C            ",
"          7A76A9        FAF5EFECEAEAEB          202C            ",
"        AC7673          F6EEE8D5D3D3D6D6E9      232C5E          ",
"        AB734E          EDD3CAD1CFD0CFE6D7BF    2F2C5D          ",
"        A44F48          E6CACAC8CACAD0BABD      232C5E          ",
"          4F45DC        CEC9C5C9C9C3BE          202AA0          ",
"          4A4183        C9C2C2C4BB            9E2C33            ",
"          58443C        C2C0BCDD              313532            ",
"            4A335A      C0CD                9D4A4A5F            ",
"            80442E57                      AA858A3F              ",
"              403E2E53                  A6B0B586                ",
"                6F44332E55DA        9A7090B68DA0                ",
"                  7F6E443C3C2E3737414D88B36D                    ",
"                    A56C70767373737A796A5C                      ",
"                          9F9981569C                            "};
