/* XPM */
/* E:\apps\iTudou\uninst.exe */
static char *icon[] = {
"48 48 253 2",
"01 c #56211B",
"02 c #592821",
"03 c #671709",
"04 c #750D14",
"05 c #751309",
"06 c #711416",
"07 c #7B1B2B",
"08 c #71310D",
"09 c #682F25",
"0A c #6B3624",
"0B c #782729",
"0C c #7D3F37",
"0D c #560C44",
"0E c #631A48",
"0F c #6A2247",
"10 c #742848",
"11 c #7F2F50",
"12 c #7A394B",
"13 c #783058",
"14 c #784314",
"15 c #784537",
"16 c #716C10",
"17 c #7A7D2A",
"18 c #764446",
"19 c #7A465F",
"1A c #7F4C69",
"1B c #861831",
"1C c #803D16",
"1D c #852A25",
"1E c #842137",
"1F c #893524",
"20 c #982B29",
"21 c #912937",
"22 c #96382B",
"23 c #9B373E",
"24 c #A63835",
"25 c #822944",
"26 c #87384A",
"27 c #893951",
"28 c #953A45",
"29 c #933F58",
"2A c #903F64",
"2B c #A63F43",
"2C c #8B5407",
"2D c #85552A",
"2E c #8B6E0D",
"2F c #907832",
"30 c #B24F1C",
"31 c #B64F2B",
"32 c #AD7218",
"33 c #BD732A",
"34 c #89464D",
"35 c #884558",
"36 c #8A544A",
"37 c #885953",
"38 c #97494B",
"39 c #944757",
"3A c #99544E",
"3B c #985854",
"3C c #88486A",
"3D c #8D4D71",
"3E c #895367",
"3F c #885473",
"40 c #984B62",
"41 c #945969",
"42 c #9A5773",
"43 c #976755",
"44 c #8D6964",
"45 c #8E736B",
"46 c #976967",
"47 c #996B77",
"48 c #9D7965",
"49 c #9B777B",
"4A c #A64947",
"4B c #A6574E",
"4C c #A65B52",
"4D c #B04A4D",
"4E c #B24C55",
"4F c #B95648",
"50 c #B75A51",
"51 c #A45779",
"52 c #B95767",
"53 c #B55B7B",
"54 c #AE674D",
"55 c #A66754",
"56 c #A97757",
"57 c #B7664C",
"58 c #B96856",
"59 c #B2734C",
"5A c #B57955",
"5B c #A76B6A",
"5C c #A56D75",
"5D c #A67577",
"5E c #B77568",
"5F c #B77A74",
"60 c #C5383C",
"61 c #C94F2B",
"62 c #C47B1C",
"63 c #D26E35",
"64 c #C74A49",
"65 c #C95549",
"66 c #C95854",
"67 c #C36747",
"68 c #C96359",
"69 c #C87556",
"6A c #D06B5E",
"6B c #C86764",
"6C c #C26277",
"6D c #C8726A",
"6E c #C97775",
"6F c #D26D6B",
"70 c #D07E6D",
"71 c #D17575",
"72 c #E3784F",
"73 c #935D84",
"74 c #9A6A87",
"75 c #9B7A87",
"76 c #9F7D91",
"77 c #B55F87",
"78 c #A46987",
"79 c #A36C98",
"7A c #A77789",
"7B c #A77896",
"7C c #BE628D",
"7D c #BC7E81",
"7E c #B17EA6",
"7F c #C16686",
"80 c #CC7589",
"81 c #CD7796",
"82 c #948415",
"83 c #938A2F",
"84 c #AB8A1B",
"85 c #B2932E",
"86 c #968D46",
"87 c #B28C53",
"88 c #A88168",
"89 c #A7847B",
"8A c #A99968",
"8B c #BA8B67",
"8C c #BA827A",
"8D c #B79F64",
"8E c #B29D76",
"8F c #B6A453",
"90 c #B6A871",
"91 c #C89131",
"92 c #C48758",
"93 c #CB9946",
"94 c #C9965B",
"95 c #D0895C",
"96 c #C68768",
"97 c #C88478",
"98 c #C39663",
"99 c #C99975",
"9A c #D48369",
"9B c #D2867A",
"9C c #D29A64",
"9D c #D59978",
"9E c #CEA856",
"9F c #D1AE71",
"A0 c #E78751",
"A1 c #F09475",
"A2 c #F1A27F",
"A3 c #9D8789",
"A4 c #9F8193",
"A5 c #9F9698",
"A6 c #A4898A",
"A7 c #A68C95",
"A8 c #AC968B",
"A9 c #A29698",
"AA c #B78785",
"AB c #B68A97",
"AC c #B9988A",
"AD c #B89996",
"AE c #A99CA3",
"AF c #B387A5",
"B0 c #B78FB1",
"B1 c #BD94A7",
"B2 c #BC94B6",
"B3 c #BCAA8D",
"B4 c #ACA2A8",
"B5 c #B5A3A6",
"B6 c #B9ABB4",
"B7 c #BFB4A4",
"B8 c #BAB7B8",
"B9 c #C4868D",
"BA c #C7948B",
"BB c #C69894",
"BC c #D38A87",
"BD c #D3879A",
"BE c #D7958A",
"BF c #D89B94",
"C0 c #C49CA5",
"C1 c #C39AB8",
"C2 c #D386A2",
"C3 c #D895A4",
"C4 c #DC9CB2",
"C5 c #C7A08A",
"C6 c #C8A796",
"C7 c #C5B888",
"C8 c #C4B695",
"C9 c #DAA688",
"CA c #D9A599",
"CB c #D8B886",
"CC c #DFB393",
"CD c #C9A7A7",
"CE c #C9A6B8",
"CF c #C8B8A9",
"D0 c #C8B8B8",
"D1 c #D8A8A7",
"D2 c #DCA6B2",
"D3 c #D7B4A7",
"D4 c #D6B9B7",
"D5 c #E3A398",
"D6 c #E4BF8D",
"D7 c #E1B49C",
"D8 c #F2A98D",
"D9 c #F3AA96",
"DA c #F3B09B",
"DB c #E1ABA5",
"DC c #E0A7BC",
"DD c #E2B4A8",
"DE c #E4BAB5",
"DF c #F3B4A5",
"E0 c #F2BEB6",
"E1 c #C9A9C3",
"E2 c #C8B8C3",
"E3 c #D4B9C3",
"E4 c #E5BBC5",
"E5 c #D5C392",
"E6 c #CEC4A8",
"E7 c #D7C5A5",
"E8 c #D6C3BA",
"E9 c #E3C696",
"EA c #E6CBA8",
"EB c #E7C8B9",
"EC c #E9D0A6",
"ED c #EBD3B7",
"EE c #F2C7BE",
"EF c #DBC4C6",
"F0 c #E7C8C7",
"F1 c #EACDD3",
"F2 c #EDD6C5",
"F3 c #EBD5D3",
"F4 c #F3CAC5",
"F5 c #F0DBCC",
"F6 c #F1DAD7",
"F7 c #F2E3CB",
"F8 c #F3E5D9",
"F9 c #F8F1DE",
"FA c #F4E4E2",
"FB c #F7F0EC",
"FC c #F9F5F4",
"   c None",
"                                                                                                ",
"                                          D0D4D3D4E6D4E3                                        ",
"                                  AD5E4F313030303061654F4F665FBB                                ",
"                            D0AA4C31303062629191919EDBD5BE9B6A4F508CD4                          ",
"                          AA5031316291939E9F9FCBD6E9F5F4F1E4DCD57168578C                        ",
"                      B54C243062939ED6E9ECEDEDF7F2F5F6FAF6FAF6F4E4DFBC6854D0                    ",
"                    5D2461629E9FD6ECF2F7F5F6F6F5F6F8FAFAFAF6FAFAF6F1F4E07065AA                  ",
"                  5C2261939EE9EDF2F5F6F6F8F5F5F8F5F6FAFAFAFAFAFAFAFAFAF6E0BE675F                ",
"                5C2B61939FE9EDF5F6F3F2F5F2EEF2EEF2F5F6F3F3FAF6F1F3F3F4FAF1E49B315F              ",
"              5D2B679C9FECDED7DEF5EBDDF2DDDBEBD7CAE0EBCADEF6DBDBF0DB9BBFFAF1E07031AA            ",
"            A82331939FEDF7D7BEBEEBDDBFEBBE9BEADEC9DEDE9BBEF69B9BE4DDBCBEFAF6F1E07061CD          ",
"          D039249193D6F7F8D5BE6D70BF97F5EBBFBE9BBCDDDB4F97F3F0CABE705FD3FAF6F6F4D5614F          ",
"          492433939EECF9F9BEBF5F223A5EEB5A58DD5A225BC5225CF3545ED48C0B36FAFAFAF4D965618C        ",
"        B4283085919EECF7F7AAC6E6150144E8360CC5430944AA0137F30C12BB440237FAFAF6E0A1726164E8      ",
"        46203285919FECF7F7E5E6F9A845A8F2AC48AC8848C6CD45ABF3BB89ADAB5DCDFAF6F4D9A1A063618C      ",
"      B5273084859E9FECF7F7F9F9F9F9FAF8F2EDEDEDEAEAEDF6F6F6F6F6FAF6FAF6F6FAF4DFD9A1A063634F      ",
"      4922328485939EE9ECF7F7F8F8F8F8F5F2EDEAEAEAEAEDF3F6FAF3FAF6F6F6FAF6EEDFDAD8A2A1A06361C0    ",
"    D0401F3284858F8F9FE9F2F7F7F7F8F5F2EDEAEAEAE7EAEAF3F3F3F3F3F6F6F6F5EEDFDADAD8A2A1A0A063AA    ",
"    B4251C168217838F8AC7E5E8F2F0F0EFD4D2CED1BBC9C5C9D2CACACAD5C99D9D94676767674F4A4A23211B39    ",
"    AB0B0816161786868A90B7E6E6E8EFEFE2EFE2D0D0B7CFB57D5F5E5A875A59544B4B4B3A38343412100F0D0FE2  ",
"    A31D14162E178386869090C8B7E6E6E2E8E2B8E2B8B7B7AD5F58585759544B4B4B4B3A4B38262711120F0D0EB6  ",
"    751D2C2E8283838686909090C7C8B7E6B8D0E2B8E2D0B7C85F5A5A544C4C4B4B4B3A3A363939343412100D0DB4  ",
"    751F2C2E8283838F8F8F8F90C7C7C7C8B7B8D0E2E2E2CFC6968B5E564C4C3B4C3B3A3A3A3636383634100E0DB4  ",
"    751F2C828284858F8F909FC79FC7C7E5E5E6E6CFD3C0C59996968B5F5656555555555543433A373A18120E0DAE  ",
"    751F2E848485858F9E9E909FC7CBE5E9E7EAC96E6866666565679599998B8887485648565656434336120F0DB4  ",
"    751D2C2E8285868F8F909FC7C7C7E5E6E7BA666671BFCABF9B6A65699D9F988B92875A565656565636180F0DB6  ",
"    751D2C2E8283868F8D9090C7C7C8E6D3BA66606BD2FAFAFAF6E49A65699F9F9C92875A87595655553A340F0EB6  ",
"    A31D082E2E2F86868A8E8EB3B3CDCFCD6B646464BCF3FBFCFBFAEE9B65959F9C9C9492925A5956553A341013B8  ",
"    A70705082D2D43488889AAADC0CED0B9669BBC6664BEF6FBFBFBFBE4686AA29F9C9E9494925A5A553A260F3F    ",
"    AE2605081415434488A6ABB5C1E1CE6E6BE4F3BF6664BFFAFBFBFBFA9B669DCB9F9C9C9494925A5438261075    ",
"    B83E0403141537457AABAFB2C1E1CE6B71F6FCFAD16664BEF1FBFCFBDF66BECCC99F9C9494925A54381111AE    ",
"      4907030A1837757BAFB0B2E1E1CD6B6EF6FCFCFADB6666BFF4FBFBDB689BD7CC9D9C9C94925A4C38253DE2    ",
"      B4270609183F747B7EB2C1E1E3CD6B6BF0FCFCFCFBCA6666BFF1FABC66BEDDD7C99D9C9492584C272676      ",
"        470709123F74797EB2C1E1E1D08C66CAFAFCFCFCFAD56666BFE06F6BD1DED7D59D9D9592574A273CB8      ",
"        B42607121A73797EB2CEE1E3E2BB666EEBFBFCFCFCFACA66656F669BDEEBDDCAC99D96694B4A1175        ",
"          751E25193F787EB1C1D2E2E4D05F669BF0FBFCFCFCF6BE646068D1EBDEDDCAC99992584B283DE2        ",
"          B83E25121A477BAFC4CEE3EFEFCF5F686FD1F0F5F0DD6E6566CDF0EEDEDDCABE965850282AB4          ",
"            A92925353F78ABC0CEE3EFF1EFCF8C68686A6F6F68686DBBF0F0E4DDD1BF9B6D504A2975            ",
"              A3342629477AABCDDCE4EFF3EFD0C8AA5F5F6D97BBD2F0F0E4DED2BFBC6D504D2975              ",
"              B8752927405CAAB1CDD4E4F1F3F3EFE8E8E8E2EFF0F1F1E4E4DBC3BC6E684D297AB8              ",
"                B8A33927415DB9C0D3E3EFF1F1F3F3F3F3F3F3F1F1E4E4D2C3BC6E524E4075B8                ",
"                  B8A54429405CAAC0CDDEE4EFF1F1F3F1F1F0E4E4E4C4C3BD6E524E42A7                    ",
"                      B6A33B415B7DB9CDD3D4DEEFEFF0E4DCDCC4C3BD806C525174B8                      ",
"                        B8AE4946465CAABBCDCDD3D3CED1C2C281817F535174AE                          ",
"                            B8B4A349495D5FAAAABABAB97C7777787A76B4                              ",
"                                  B8AEA5A3A3A6A5A6A3A4A4A7AEB8                                  ",
"                                              B8                                                ",
"                                                                                                "};
