/* XPM */
/* C:\Program Files\FlashGet Network\FlashGet\uninst.exe */
static char *icon[] = {
"48 48 171 2",
"01 c #474747",
"02 c #494949",
"03 c #4D4D4C",
"04 c #525251",
"06 c #555555",
"07 c #595856",
"08 c #585858",
"0A c #5E5E5D",
"0B c #626262",
"0D c #646464",
"0E c #676868",
"0F c #6D6C65",
"10 c #696969",
"13 c #6C6C6C",
"16 c #747169",
"19 c #7A756D",
"1A c #717171",
"1C c #767675",
"21 c #797979",
"23 c #7D7D7D",
"24 c #807B74",
"25 c #827D73",
"27 c #FF6600",
"28 c #FE6C00",
"2B c #FD7600",
"2D c #FF710C",
"31 c #FC7D00",
"32 c #FE790F",
"34 c #FF761B",
"36 c #838177",
"37 c #878177",
"38 c #80807A",
"39 c #85817A",
"3B c #8A8579",
"3D c #8C897C",
"3E c #918A7D",
"41 c #FB8900",
"42 c #FD8212",
"43 c #FE801E",
"44 c #FC8B15",
"46 c #FB9215",
"47 c #FC901E",
"48 c #FA9A18",
"49 c #FD8924",
"4A c #FF8630",
"4B c #FE8B31",
"4C c #FC9127",
"4D c #FC9721",
"4E c #FB9D21",
"4F c #FD9432",
"50 c #FD9539",
"51 c #FD9B33",
"52 c #FD9D3A",
"53 c #FCA133",
"55 c #FBA83A",
"56 c #FE984B",
"57 c #FF9954",
"59 c #FCA842",
"5A c #FBAF48",
"5B c #FEA25D",
"5C c #FCB14E",
"5D c #FFA163",
"5E c #818181",
"5F c #858585",
"60 c #878888",
"62 c #8C8B88",
"64 c #8F8F90",
"66 c #928E81",
"6A c #979183",
"6C c #949389",
"6E c #9B9486",
"6F c #9F9687",
"70 c #9D9589",
"71 c #9D9989",
"73 c #929394",
"76 c #979898",
"77 c #999999",
"78 c #9D9D9D",
"79 c #A39989",
"7A c #A39C8B",
"7C c #A79B8B",
"81 c #ABA08E",
"84 c #A5A393",
"87 c #ADA290",
"88 c #AFA492",
"89 c #ADAA98",
"8A c #B0A693",
"8D c #B4AA97",
"8E c #B2A899",
"90 c #B5AD99",
"91 c #B8AF9B",
"92 c #B2B09D",
"93 c #B5B19C",
"96 c #BCB59F",
"97 c #A1A1A1",
"9A c #A6A8A9",
"9B c #A9A9A9",
"9C c #ADADAD",
"9D c #AEB0B0",
"9E c #B9B2A1",
"9F c #BDB6A1",
"A0 c #BBB9A3",
"A3 c #BFBDA8",
"A4 c #B1B1B1",
"A5 c #B3B4B4",
"A6 c #B5B5B5",
"A7 c #B6B7B8",
"A8 c #BBBBBB",
"A9 c #BCBEC0",
"AA c #BDC0C2",
"AD c #C4BFA8",
"AE c #C3BCB1",
"AF c #C6C1A9",
"B0 c #C8C5AD",
"B1 c #CBC8AF",
"B2 c #C6C0B5",
"B3 c #CBC7B2",
"B4 c #C8C3B9",
"B6 c #CCC9B4",
"B7 c #CECCB2",
"B9 c #D0CEB5",
"BA c #D3D2BC",
"BB c #FFD7BD",
"BC c #C3C3C3",
"BD c #C3C5C8",
"BE c #C7C8CA",
"BF c #CFCBC3",
"C0 c #CACACA",
"C2 c #CCCED1",
"C3 c #CFD0D1",
"C4 c #D0CEC2",
"C5 c #D4D2C4",
"C6 c #D6D5CB",
"C8 c #D8D6C8",
"C9 c #D9D8CF",
"CA c #D1D2D2",
"CE c #D3D5D9",
"CF c #D6D8DA",
"D2 c #D9D9D9",
"D5 c #DEDDD8",
"D7 c #DADEE1",
"D8 c #DEE1E4",
"D9 c #E0DFD8",
"DA c #FFDCC3",
"DC c #E1E1D5",
"DD c #E2E3DC",
"DE c #FEE5CD",
"DF c #FFE6D5",
"E3 c #FEEED8",
"E4 c #FFECDE",
"E5 c #E2E2E2",
"E6 c #E0E3E6",
"E7 c #E2E4E4",
"E8 c #E5E6E1",
"EA c #E5E6E8",
"EB c #E6E8E4",
"EC c #E6E8E9",
"ED c #E9EBEC",
"EE c #ECEEF0",
"EF c #EEF1F3",
"F0 c #FFEFE1",
"F3 c #FEF4E4",
"F4 c #FFF4EB",
"F5 c #F1F1F1",
"F6 c #F0F3F5",
"F7 c #F1F4F6",
"F8 c #F4F5F6",
"F9 c #F2F6F9",
"FC c #FFF9F3",
"FE c #FFFCF9",
"   c None",
"                                  BDA69B9A9A77737373779B9A9BA7                                  ",
"                          A673979DA7BECACACAD7E7E7EBD9CFC9CFC0A89D7877A7                        ",
"                    9D77A6BCD2DDD9E5C0B2AAB2A79CA6A6A8C0C0C3D2EDEDEDEBC09D64BC                  ",
"                A778BDD2D2A87777777897979B9B9C9C9C9DA6A6A7A8A8A8B4A9BDD9EDEBA764                ",
"              6CA8CABD60736C737677787897979B979C9C9CA69DA6A7A8A8A8AABDB4AAC3F5D977BD            ",
"            64BECA5F5F60647373737677779797979B9C9C9C9CA69CA6A7A8A8A8AAAABDBDBCEDEB77            ",
"          9773A85E5E5F606060737373767777979797979B979C9CA69CA6A6A8A8A8AAB4A9BDBCEAA960          ",
"          5FCE605E5E5E5F6060607373737677779797979C9C9C9C9CA6A6A6A6A8A8A8BDB4A9BD9B9A64          ",
"          5FF6D8605E5E5E60606060737373767777979797979C9C9C9CA6A4A6A6A8A8A8AABD9764ED64          ",
"          5FECF9E76438385E5F6060607373737677779797979A979C9C9CA4A6A6A7A7A8A77876EAF760          ",
"          5EB9DCF9F8BE64385E5F5F60607373737677779797979C9A9C9C9DA6A4A6977360A9F7EDB470          ",
"          5EB9B9B9ECF8F9CFA560235F5F60606464737777777877777877766060609ACEF7EDB487816E          ",
"          23B9B9B9B7BAE8F8F9F9EDCEAA9A737673602323235F7376769AA9C2EAF7F7E5AE87817A7C79          ",
"          23B9B9B9B3B7B1B3C8DDF5F7F9F9F9F7F7F7F9F9F9F7F7F9F9F7F7EDD2B49087878181818762          ",
"          1CE7C8B9B3B9B1B1B1B0B0B3C5C5D9D9DDEDECECECD5D5C9B6B29E8A8A8888878787878ED223          ",
"          1CEAF7E7B9B3B3B3B0B0B0AFAFADADA0AD9F9F9696939190908D8D8A8A8888878787C0F7F723          ",
"          1CE6F7F7F7EAC6B6B3B0B0B0ADADADAD9FA09F9696909690908D8D88888A8EAECFEFF7F7F721          ",
"          1CD8F7F7F7F7F7F7EAC6B4B2AFADADA0AD9F9F9F9693968D90908E9FB4D2EFF7F7F7F7F7F71C          ",
"          13E7F6F7F7F7F7F7F6F6F6F6EAE7D5D5C5C5C5C4C5BFCAD5D5E7F7F7F7F7F7F7F7F7F7F7F71C          ",
"          13D8F6F6EDF7EFEFEFF6F6F7FEFEFEFEFEFEFEFEFEFEFEFEFEFEF7F7F7EFEFEFEFEFEFEFF713          ",
"          13CFF6F6F7EFEFEFEFEFF6DF342828272828272828282828284AF4F7EFEFEFEFEFEFEFEFEF13          ",
"          0DCFF6F5EFEFEFEFEFEFEFF7F043282B28282B28282828284BF4F7EFEFEFEFEFEFEFEFEFEF13          ",
"          0DCEF6EDF7EFEFEFEEEFEFEFF7F4492B2B2B2B2B2B2B2B4FF4F7F7EFEFEFEFEFEFEFEFEFEF0E          ",
"          0DCEEDF7EDF6EFEFEFEFEFEFEDF7F44F312B2B31313151F4F7F6EDF7EFEDEFEFEFEFEFEFEF0B          ",
"          0ACAF6EDEDF6F5EDEFEFEDF6EDF6F7FC554141413152FCF9F6EDEDF7EDF7EFEFEDEFEDF6ED0A          ",
"          0AC3EDF6EDEDEDEDF5EDEDF7FEFEFEFEFC59414155F4FEFEFEFEF7EDEDEDEDEDEDF5EDEDED08          ",
"          0AC3EDEDEDF5EDF5EDEDF5DF3428282857FC5C59F45B2828284AF4EDF5EDF5EDF5EDEDF5EA06          ",
"          06C3EDEDEDEDEDEDEDF5EDF8E4342B282856FEFC5B2B28284BF4F7EDEDEDEDEDEDEDF5EAF504          ",
"          06C2EDEDEDEDEDF5EAF5EAEDF8F0492B2B2B2B322B2B2B50F8F5EDEDEDF5EDF5EAF5EAEDED03          ",
"          06BEEDEDEDEAEDEAEDEAEDEDEDF7F04C31313131313152FEF6EDEDEDEDEAEAEAEDEAF5EAED02          ",
"          0DBDEDEDEAEDEDEDEDEDEDEDEAEDF7F4514141314152FEF5EDEDEAEDEAEDEDF5EAF5EAEDED01          ",
"          1CA7ECECEDEAEAEAEAEAEAF5FEFEFEFEF853414159FEFEFEFEFEF5EDEAEDEAEAEAEAEAEAD202          ",
"            1CD2ECECEAEAEDEAEDF5BB2D2727275DFC595AFC5727272734E4EDEAEAEAEDEAEDEAE51C0D          ",
"          978464ECECEAEDEAEAEAEAF8DA2D27282857FCFE5628282834E4F5EAEAEAEAEAEAEAEA9B3B21          ",
"          5FA36C77ECECE7EBEAEBEAEAF5DE322B282B322B282B2843E4F5EAEAEAEAEAEAEAE79A396621          ",
"          23A0B33878ECE7EDE7ECEBEAEBF5DE422B2B312B2B2B47E4F5EBEAEBEAEBEAEBE79C16813E1C          ",
"          5F92B9B12478E7E7E7E7E7EBE7EBF5DE444131314147F0F5E7E7EBE7EBEAE7E7A41379813721          ",
"            24B3B9B03873CFE7E7E7E7E7EBE7F5E34641414DE4F5E7EBE5EBE7EBE7E797136F81791060          ",
"            236AB3B9B1710BA6E7E7E7E7E7E7E7F5E3484EF3F5E7E7E7E7E7E7E7C07716818181241C            ",
"              1C84B3B3B1931623A6E7E7E7E7E7E7F5E3F3F5E7E7E7E7E7E7CA770D3B8181813E13              ",
"                0A71B3B3B1B189160D60A7D2E7E7E7EDEBE7E7E7E7C097230A3681888181660A23              ",
"                  136AB3B1B1B0B0A071190A0D1A606064605F1C060D256F888A8888883E0723                ",
"                    1316A0B0B0B0AFAFADAD90886666663D6A7A90908D8D8A8A8881190D23                  ",
"                      1C0636A0B0AFAFADADA0AD969F9696909690908D8D8A883B0713                      ",
"                          1C022484ADAFADAD9FAD969696969090908D7A25070D5F                        ",
"                              230A020F3D7184909F96907A6F3B16060613                              ",
"                                    60130A0A02010102060A0D23                                    ",
"                                                                                                "};
