/* XPM */
/* C:\Program Files\FlashGet Network\FlashGet\Flashget3.exe */
static char *icon[] = {
"48 48 219 2",
"01 c #8B0B00",
"02 c #8D1006",
"03 c #8F1309",
"04 c #920E00",
"05 c #971000",
"06 c #91190F",
"07 c #9B1301",
"08 c #991800",
"09 c #931D13",
"0A c #9C3027",
"0B c #A31400",
"0C c #A11900",
"0E c #AC1800",
"0F c #B51C00",
"10 c #A82500",
"11 c #AF2C00",
"12 c #A92715",
"13 c #B72702",
"14 c #B62900",
"15 c #BE2102",
"16 c #BC2508",
"17 c #BB2C00",
"18 c #B63306",
"19 c #B63E0F",
"1A c #BF3001",
"1B c #A23C34",
"1C c #BC733D",
"1D c #AE554E",
"1E c #AF5851",
"1F c #B85245",
"20 c #BA7542",
"21 c #B86B65",
"22 c #C12806",
"23 c #C32E10",
"25 c #CF3602",
"26 c #CA3B01",
"27 c #D13A02",
"28 c #EA3F00",
"29 c #C44000",
"2A c #C74D0D",
"2B c #CC4500",
"2C c #CB4C0B",
"2D c #C54F13",
"2E c #C84710",
"2F c #C55315",
"30 c #D44301",
"31 c #D44308",
"32 c #D64A01",
"33 c #DB4C01",
"34 c #D35200",
"35 c #D35800",
"36 c #D35E0A",
"37 c #DB5201",
"38 c #DB5208",
"39 c #DE5800",
"3A c #DA5B0A",
"3B c #D35F10",
"3E c #DA7118",
"3F c #C96A22",
"40 c #D16C20",
"41 c #D87A28",
"42 c #EB4900",
"43 c #E05401",
"44 c #E35A00",
"45 c #E35B08",
"48 c #F54E00",
"49 c #F15400",
"4A c #F05D00",
"4B c #FE5600",
"4C c #FE5C00",
"4D c #E16400",
"4E c #E2630C",
"4F c #E26F0C",
"53 c #EB7302",
"54 c #E57312",
"55 c #E67919",
"56 c #E87016",
"57 c #E87E1E",
"58 c #F16300",
"59 c #F1640E",
"5B c #F36C0C",
"5D c #FF6B00",
"5E c #F66812",
"5F c #F47300",
"60 c #F57309",
"61 c #F57B00",
"64 c #FB7B09",
"65 c #F67411",
"66 c #F57A17",
"67 c #F77E18",
"68 c #FF7615",
"6A c #FF7C1A",
"6B c #CF5841",
"6C c #C26254",
"6D c #C17B46",
"6E c #D2644E",
"6F c #BE8652",
"70 c #BE9E71",
"71 c #BFA66C",
"73 c #BBAA7F",
"74 c #DD8316",
"75 c #DD8A27",
"76 c #D98535",
"77 c #D79B2F",
"78 c #DB9D25",
"79 c #D59332",
"7A c #D69A3B",
"7B c #EE8D01",
"7C c #E58518",
"7D c #ED9402",
"7E c #E99A15",
"7F c #F68200",
"80 c #F28508",
"81 c #F78C00",
"82 c #FD8400",
"85 c #F7801C",
"86 c #FF8017",
"8B c #F49B08",
"8C c #FC9300",
"8D c #FC9108",
"8E c #FC9B00",
"91 c #EA8426",
"92 c #F78326",
"93 c #F7852E",
"94 c #FF8321",
"97 c #FF8C29",
"98 c #F68636",
"99 c #F6883E",
"9C c #FF912E",
"9D c #FF9531",
"9E c #FDA201",
"A0 c #FEAB03",
"A1 c #FDAB0A",
"A2 c #FBA211",
"A3 c #FAA419",
"A4 c #FFAE17",
"A5 c #FFB404",
"A6 c #FAA227",
"A7 c #FBA628",
"A8 c #FCAD27",
"A9 c #F9AD2E",
"AA c #FAA83C",
"AB c #F4B429",
"AD c #F5BB35",
"AE c #CD824B",
"AF c #CB8A5A",
"B0 c #C29F4F",
"B1 c #CE954B",
"B2 c #CE985C",
"B3 c #D08E4F",
"B4 c #D19B58",
"B5 c #CE8C60",
"B6 c #C2807B",
"B7 c #CA956A",
"B8 c #C59D75",
"B9 c #D49C62",
"BA c #C7A154",
"BC c #C1A366",
"BE c #C4A962",
"BF c #C1A273",
"C0 c #C7A67C",
"C1 c #C1A972",
"C2 c #CBA37C",
"C3 c #CAA97E",
"C4 c #CCB16E",
"C5 c #C9B17A",
"C6 c #D8A563",
"C7 c #F38848",
"C8 c #F48B59",
"C9 c #F58E62",
"CA c #FAB542",
"CB c #FBBC56",
"CC c #FFC704",
"CD c #FED707",
"CE c #FFE008",
"CF c #FFE114",
"D0 c #FEE329",
"D1 c #EBC14E",
"D2 c #EBC35B",
"D3 c #FCC14D",
"D4 c #FCC058",
"D5 c #FFC951",
"D6 c #FFDA5D",
"D7 c #FBC36A",
"D8 c #FFCC63",
"D9 c #FCCC7D",
"DA c #FFD17D",
"DB c #FEE644",
"DC c #FEEC65",
"DD c #BEB296",
"DE c #DF9181",
"E0 c #C3AF90",
"E1 c #C5B38F",
"E2 c #C4B692",
"E4 c #C5B89A",
"E5 c #C8B693",
"E6 c #CBBB95",
"E7 c #CCBD9A",
"E8 c #D6B48D",
"E9 c #D0BC9D",
"EB c #D0C19D",
"EC c #CCC0A2",
"ED c #D2C4A3",
"EE c #D4C8A6",
"F0 c #D8CCAD",
"F1 c #D8CDB1",
"F2 c #DCD3B9",
"F3 c #E0D7BF",
"F4 c #FFDDA4",
"F5 c #FFE297",
"F7 c #E3DBC7",
"F8 c #E7E0CE",
"F9 c #EAE4D5",
"FA c #FFE9C1",
"FB c #F1EDE3",
"FC c #F5F2EA",
"FE c #FAF8F5",
"FF c #FFFFFF",
"   c None",
"                                                                                                ",
"                                                                                                ",
"            DE6B2222220F2215150F15151622161616150F0F0F0F0F0F0F0F0F0E0F0E0E0E0B0E0B0E6C          ",
"        DE2222223145454A4E4A4D5959383838383333333332323330321A1A2217171517171414140C0B12        ",
"      6E223A538BA2A6AAAAA7A2A28D8D8D8D8D8D8D8D646464645F5F5F5F5F5F5F5F5F585358584443250B1F      ",
"    DE1AABDCD5D8DAF4FAFAF5D6DBD0CFCFCECECECDCDCECDCCCCCCCCA5A5A5A08E9E8E8E8E82534437302207      ",
"    234FDB8D8D8D8B8EA2A2A0A1A5A5A5A5A5A5A1A0A09E9E9E8E8E8C81818C8C8C818181829E8E5833272507      ",
"    227EA481818C8C8B8E9EA1A0A1A0A5A5A5A5A5A1A09E9E8E8E8C8C8C81828282615F5F5F5D5D8233272507      ",
"    158BA181818C8D8E8EA29E9E9EA0A0A0A5A0A0A0A1A29EA28E8C81818182826161615F5D5D5D8243252504      ",
"    157D9E8181818C8C8E8E817B7E817B7B817D818E9E9E8E8E8C8C8C8182828261615F5F5F5D586A43252504      ",
"    157D9E8182818C8C8E816DB8B8C2C2C2C3C3B7B5B5AF6D6D6D20202020368261615F5F5D5D5D6A33252504      ",
"    0F7D9E828181818C8C8C41F7FBFBFCFCFCFEFEFEFFFEFEFCFCFCFBFBF83E6161615F5D5F5D586A33252504      ",
"    0F7D8E82828181818C8C8276F7FCFBFCFCFEFCFEFEFEFEFCFCFCFBF8766182615F5F5F5D58588633252701      ",
"    0F7D9D82828281818C8C8C82B3F9FCFCFCFCFEFEFCFEFCFCFCFCF876826161615F5F5D5D5D586A33272701      ",
"    0F7D9D618282828181818C8C82B9F9FBFCFCFCFCFCFCFCFCFCF876828261615F5F5F5D5D58588633272701      ",
"    0F7D976161828282818181818C82C3FBFBFBFBFCFCFCFCFCF8B4828261615F5F5F5D5D58584C8633272701      ",
"    0E919C616182828282828181818164E8FBFBFBFBFBFBFBF9B481826161615F5F5D5D5D58584C9433272701      ",
"    0E91975F616161828282828281818180E9FBFBFBFBFBF9C6816161615F5F5F5F5D5D5858584C9433272701      ",
"    0E91975F6161616182825F535F5F61617CF1F9FBF9F9B9816161615F615F5F5D5D5D58584C4C9433272701      ",
"    0C57945F5F5F6161615FAEC2B8B8B8B7B3B7F8F9FBC240404040403B32585D5D5858584C4C4B9433273001      ",
"    0B57945F5F5F5F61616175F1F8F8F8F8F9F9F9F9F9F9F9F8F2F2F2F2F1405D5D58584C4C4C4B9843272701      ",
"    0B55945D5D5F5F5F5F618276F2F8F8F8F8F8F8F9F8F9F8F8F8F8F8F3B281585858584C4C4B4B9833273001      ",
"    0B556A585D5D5D5F5F5F5F81B1F7F7F8F8F8F8F8F8F8F8F8F8F7F7B28C5D58584C4C4C4B4842C733303001      ",
"    075568585D5D5D5D5D5F5F5F81B9F2F7F7F8F7F7F7F7F7F7F7F3BF8C5D58584C584B48422828C733303001      ",
"    07546A5858585D5D5D5D5D5D5F8CBFF7F7F2F7F7F7F7F7F7F2BF8B58584C4A49424242422842C738303001      ",
"    05545E5858585858585D5D5D5D5F8DC3F3F7F7F7F7F2F7F2BF8B584A49494942494242422828C842303001      ",
"    075459424249494A4A4A4A5858585F7EE5F2F3F2F2F3F2708B584A4A49494349424242424228C833303001      ",
"    044F5949494949494A4A37373744445374E7F1F2F2F2C07D58584A4A4A4A4949494348424242C943303201      ",
"    043B424943494A4A4A586FECE4DDE4DDC3E0F2F2F2ECAFAE6D1C1C203F384A49494942434242C843303001      ",
"    042A4949494A4A58585F7E73F1EEF1F1F1F1F1F1F1F1F1F1F1F1F0EEEC74584A4A4949424942C843303201      ",
"    012C49494A4A4A58585F5F7EE1EEEEF0F0F1F0F0F0F0F0F0EEF1EEEC797F4A4A4A4A49494243C743333201      ",
"    012C4A4A4A4A585858585F7F78E4EEEEEEEEEEF0EEF0EEEEEEEEE7798B585F4A4A4A4A494942C737323201      ",
"    012F4A4A58585F585F5F5F5F8177E7EDEDEDEEEDEEEDEEEDEDE77AA35F585858584A4A4949499944323301      ",
"    012F4A4A585858585F5F5F61619EB0EBEDEDEDEDEDEDEDEDE4BAA95F5F5F5858584A4A4A49499837323401      ",
"    012D585858585F5F5F5F5F61617FA2BAE7EBEBEBEBEBEBE5BCCA615F5F5F5F585858584A4A499343333301      ",
"    012D5858585F585F5F5F6161617F81AD71E7E7EBEBEBE271CB7F61615F5F5F585F584A4A4A499244333401      ",
"    012D5858585F5F5F5F61617F7F7F8281AD71E6E6E6E5C1D77F7F7F61615F5F5F585858584A4A8544343301      ",
"    012D585F585F5F5F61617F7F82818181A2D273E6E5C5D981827F7F7F61615F5F5F5F584A4A4A6744373701      ",
"    012D58585F5F5F61617F7F828181818C81A3D1BEC4DA818C81817F7F61615F5F5F5858584A4A6744373701      ",
"    012D585F5F5F5F61617F7F8181818C8C8C8EA8D3D48C8C8C81817F7F7F61615F5F585F58584A6744373401      ",
"    0619605F5F5F5F617F7F82818C8C8C8E8E8E8E8E8E8E8C8C818181827F61615F5F5F5858584A5B4E343201      ",
"    210156605F5F61617F7F8181818C8E8E8E9E9E9E9E8E8E8C8C8C817F7F6161615F5F5858584A5B3A261A01      ",
"      03084E645F6161827F81818C8C8E8E9E9E9E9E9E9E8E8E8C8181827F82615F5F5F5F58584A652C1A0C09      ",
"        0201011010112929344D4D7F828C8E8EA0A09E9E8E8E8C8C81817F6161615F5F5858585866130701B6      ",
"          211B1B010101010101010101011010112929354D4D7F8282827F7F61615F5F5F5858652E04011D        ",
"                            B6211E1B0A0101010101010101010110101129292B3939374E18010121          ",
"                                                    21211B1B090101010101010101011B              ",
"                                                                                                "};
