/* XPM */
/* E:\Apps\internet\Thunder Network5\Thunder\unins000.exe */
static char *icon[] = {
"32 32 33 2",
"00 c #000000",
"01 c #000080",
"07 c #C0C0C0",
"0B c #080808",
"30 c #009999",
"31 c #0099CC",
"43 c #333333",
"4D c #3366FF",
"52 c #3399CC",
"58 c #33CCCC",
"5E c #33FFFF",
"73 c #669999",
"78 c #66CC99",
"7A c #66CCFF",
"92 c #999999",
"9F c #99FFCC",
"BA c #CCCC66",
"BB c #CCCC99",
"BC c #CCCCCC",
"C2 c #CCFFCC",
"C3 c #CCFFFF",
"E1 c #FFFF99",
"EA c #5F5F5F",
"EB c #777777",
"EC c #868686",
"ED c #969696",
"EF c #B2B2B2",
"F0 c #D7D7D7",
"F2 c #E3E3E3",
"F7 c #A4A0A0",
"FB c #00FFFF",
"FF c #FFFFFF",
"   c None",
"                            EBEBEBEBEBEBEBEBEBEBEBEBEBEBEBEB    ",
"                          ECFFFFFFFFFFFFFFFFFFFFFFFFFFFF07EC00  ",
"                          ECFF010101010101010101010101FF07EC00  ",
"                          ECFF017A7A7A5EC35EC3FB7A7A01FF07EC00  ",
"                          ECFF017A7A5EC35EC35E7A7A3101FF07EC00  ",
"                          ECFF017A5EC35EC35E7A7A313101FF07EC00  ",
"                          ECFF015EC35EC35E7A7A31313101FF07EC00  ",
"                          ECFF01C35EC35E7A7A3131313101FF07EC00  ",
"                ECECECECEC00FF015EC35E7A7A313131314D01FF07EC00  ",
"              ECFFFFFFFF00ECFF01C35E7A7A313131314D4D01FF07EC00  ",
"            ECEAEAEAEA0000ECFF01FB7A7A313131314D4D4D01FF07EC00  ",
"          ECEAEAEAEA00F700ECFF010101010101010101010101FF07EC00  ",
"ECECECECECECECEAEA00F7F700ECFFFFFFFFFFFFFFFFFFFFFFFFFFFF07EC00  ",
"  ECFFFFFFFFFFEA00F7F7F700EC070707070707070707070707070707EC00  ",
"    EAEAEAEAEA00F7F7F7F7000000000000000000000000000000000000EF0B",
"    ECECECECEC00F7F7F7F700ECECECECECECECECECECECECECECECECEFEC00",
"    ECFFFFFFFF00F7F7F7F700FFFFEDEDEDEDEBEBFFFFFFFFFFFFFFFFFFEC00",
"    ECFFFFFFFF00F7F7F7F700EBEB78E1BABABAEF4343ECECECECEC0707EC00",
"    ECFFFFFFFF00F7F7F7F7EA527378E1BABABAEFEFF7430000000007EFEC00",
"    ECFFFFFFFF00F7ECF7EA58525273E1E1BABAEFF7F70743070707070700  ",
"    ECFFFFFFFF00ECF7ECEA5858527378E1BAEFEFF707FF430000000000    ",
"    ECFFFFFFFF00F7ECEAF29F5858527373BAEFF707FFF0F043            ",
"    ECFFBCFFBC00ECF7EAF2F29F9F58580000EFF7FFF0EFEF43            ",
"    ECBCFFBCFF00F7ECEA929292929200    00F0F0ECECEC43            ",
"    ECFFBCFFBC00ECF7EABCBCBCEFEF00    00ECECECEFEF43            ",
"    ECBCFFBCFF00F7ECEABCEFEFEFEF070000F2F2F2EFEFEF43            ",
"    ECFFBCFFBC00ECF7EAEFEFEFEF07BBBB309FF2F2F2F2F243            ",
"    ECBCFFBCFF00F7EC00EBEFEF0707BBE131309F9FF2F243              ",
"    ECFFBCFFBC00EC00  EAEF070707BBE15831309F9F9F43              ",
"    ECBCFFBCFF0000      EA0707BBBBE1C25831309F43                ",
"    000000000000          EAEABBBBE1C258314343                  ",
"                              EAEAEA434343                      "};
