/* XPM */
/* E:\Apps\internet\Thunder Network5\Thunder\Thunder.exe */
static char *icon[] = {
"48 48 198 2",
"00 c #000000",
"09 c #A6CAF0",
"0B c #03040B",
"0C c #0A0A0E",
"0D c #020413",
"0E c #03041C",
"0F c #040A12",
"10 c #0C0D11",
"11 c #0B0B19",
"12 c #0D1319",
"13 c #161617",
"14 c #020321",
"15 c #040529",
"16 c #040B23",
"17 c #04092C",
"18 c #090A24",
"19 c #080E2D",
"1A c #030B37",
"1B c #0E1023",
"1C c #051237",
"1D c #06133E",
"1E c #081030",
"1F c #0A153C",
"20 c #0D1A34",
"21 c #11112F",
"22 c #1A1C22",
"23 c #181C2C",
"24 c #101532",
"25 c #1D2129",
"26 c #172034",
"27 c #16233A",
"28 c #1A2233",
"29 c #1F233A",
"2A c #222326",
"2B c #25262C",
"2C c #25282D",
"2D c #2A2B2C",
"2E c #242732",
"2F c #262B33",
"30 c #242A3E",
"31 c #2B2D31",
"32 c #282B38",
"33 c #2C3137",
"34 c #343538",
"35 c #030545",
"36 c #050B47",
"37 c #030A4B",
"38 c #030752",
"39 c #030D53",
"3A c #030A5E",
"3B c #051345",
"3C c #09174D",
"3D c #09194B",
"3E c #061757",
"3F c #07135C",
"40 c #091F5A",
"41 c #040C60",
"42 c #05146A",
"43 c #051C62",
"44 c #051B6D",
"45 c #0B1C62",
"46 c #05167C",
"47 c #1B2C4A",
"48 c #162A5F",
"49 c #1D314D",
"4A c #0E2263",
"4B c #0C256A",
"4C c #0C2573",
"4D c #0E2C7B",
"4E c #122966",
"4F c #10277A",
"50 c #1C3B6D",
"51 c #1A3B79",
"52 c #25354B",
"53 c #2D3440",
"54 c #2E3844",
"55 c #293B57",
"56 c #313541",
"57 c #333843",
"58 c #33394C",
"59 c #3A3D43",
"5A c #343C52",
"5B c #3D4249",
"5C c #364952",
"5D c #3B4452",
"5E c #3C455A",
"5F c #224277",
"60 c #45464A",
"61 c #454A55",
"62 c #4F5257",
"63 c #4C525C",
"64 c #525457",
"65 c #444C64",
"66 c #435360",
"67 c #565F76",
"68 c #5A6779",
"69 c #616265",
"6A c #636873",
"6B c #031F85",
"6C c #061F93",
"6D c #092B83",
"6E c #0F2E8A",
"6F c #082498",
"70 c #0F318B",
"71 c #112892",
"72 c #123383",
"73 c #133493",
"74 c #13359B",
"75 c #123A9C",
"76 c #1B3594",
"77 c #1F3A9A",
"78 c #153EA3",
"79 c #133CA9",
"7A c #1838A7",
"7B c #174392",
"7C c #1740A4",
"7D c #1445AC",
"7E c #1843A1",
"7F c #1A44AB",
"80 c #1C4CAC",
"81 c #174AB8",
"82 c #1C47B0",
"83 c #1A4DBB",
"84 c #274C84",
"85 c #25469D",
"86 c #30558F",
"87 c #345C94",
"88 c #234CAB",
"89 c #2454B2",
"8A c #275CB9",
"8B c #2B55B3",
"8C c #285BBB",
"8D c #3357B5",
"8E c #3B628E",
"8F c #2863BF",
"90 c #3E71B7",
"91 c #285BC2",
"92 c #346AC5",
"93 c #346DC9",
"94 c #396BC7",
"95 c #3A73CB",
"96 c #446F9D",
"97 c #416EAB",
"98 c #476CBB",
"99 c #557FB5",
"9A c #416DC7",
"9B c #4477C7",
"9C c #4378CF",
"9D c #4B73C6",
"9E c #4979C6",
"9F c #447ED4",
"A0 c #5177C1",
"A1 c #6490B0",
"A2 c #4F85C8",
"A3 c #4988DC",
"A4 c #548BD7",
"A5 c #5A92D9",
"A6 c #4C8EE0",
"A7 c #5B9AE6",
"A8 c #6389D0",
"A9 c #7797D5",
"AA c #609FE7",
"AB c #7EA2D8",
"AC c #65A4EB",
"AD c #6AADF8",
"AE c #72AEED",
"AF c #70ADF3",
"B0 c #7BB7EE",
"B1 c #7BB6F4",
"B2 c #8695A7",
"B3 c #88A0AD",
"B4 c #90ADDD",
"B5 c #87BBE9",
"B6 c #85BDF5",
"B7 c #9AB7E2",
"B8 c #AAB7CF",
"B9 c #ABBAD2",
"BA c #AABEE3",
"BB c #87C0EB",
"BC c #8AC4F2",
"BD c #93CAF1",
"BE c #9CD3F3",
"BF c #B8CEDF",
"C0 c #A5C6E8",
"C2 c #A6DAF4",
"C3 c #B7C7E2",
"C4 c #BFD2ED",
"C5 c #B9DBF6",
"C6 c #ADE0F5",
"C7 c #B1E3F5",
"C8 c #C4DAF2",
"C9 c #C4E3F8",
"CA c #D5E8FA",
"CB c #DAF4FB",
"CC c #E5EEF9",
"CD c #E7F8FD",
"CE c #FBFDFE",
"   c None",
"                                                                                                ",
"                                                                                                ",
"                                                                                  58210E2D      ",
"                                                                            5A283E6B6C3800      ",
"                                                                        301D6D837D786E0E2B      ",
"                                                                  5329437F817D754B1D1063        ",
"                                                            5E323B73918C784D1C0B22              ",
"                                                        2E24448B9289784B160C53                  ",
"                                                  581B37779A9E8873400D22                        ",
"                                            642D17428DA89888733D0D25                            ",
"                                      61221439719DA99878723B0C31                                ",
"                                  311135467AA9B4987E701D0B2F                                    ",
"                              2D14416F8DB7C4A07C733B0031                                        ",
"                          2A0E3A6F8DBACCAB89784C0D22                                            ",
"                      610B376F89B7CEC89B80753B0B56                                              ",
"                    13144679A8CACEC09289741A22                                                  ",
"                  10356F92B7CECEB5958A731433                                                    ",
"                1035799FC8CECE09A3957E1659                                                      ",
"              223782A7CACECEC9A7A6931A22                                                        ",
"            311A7FA7CACECECDB0ACA78C00                                                          ",
"          651474AAC5CECECBBEAEAEAC8813                                                          ",
"          1246A5BDCECECBC2BCB5B0AE8B10                                                          ",
"        61359CBCCBCECDC7BDBDBDBCB0940D61                                                        ",
"        1173B6C2CDCBC7BEBEBEBEBDB09F1413                                                        ",
"      5D36A5C2C6C6C6C6C2C2C2BEBDAE931413                                                        ",
"      2B76BDC7C7C6C6C2C2C2BEBDB1A34F005B                                                        ",
"      15A4C6C7C6BEBEBDBDBCB0AA92450B2C                                                          ",
"    633FBCC6BEBCAEA7A6A395884A1413                                                              ",
"    3485C2B5550F0F0D0D0D0B1331                                                                  ",
"    0E9DBB4961                6A34315969                                                        ",
"    14A5862A          612F5468B2B9C3B8B267535965                                                ",
"    179217        571F72C0CDCECECECDCDCDCBCABFB3662F63                                          ",
"    184222      1E446D8FA3AEB0B6B6B1AEA7A6A3A3A3A6A4874753                                      ",
"    000B59    191A256147A3A7A7A7ACACA7A790845F5F5F847B7D7E51522C                                ",
"              34        2897AFB1B1B1B1872C6A      632F31231F43724E2761                          ",
"                          344999B6BDAF20                    5757163D4E485334                    ",
"                2D13125B63    5325472661                            2C223C4E1A23                ",
"                    28A5A15C63                                            33161731              ",
"                    60A2ADAD8E5B                                                                ",
"                      52B096845062                                                              ",
"                        2C5D652727                                                              ",
"                                2825                                                            ",
"                                  2D2C                                                          ",
"                                    2D31                                                        ",
"                                      2A                                                        ",
"                                        22                                                      ",
"                                          31                                                    ",
"                                                                                                "};
