/* XPM */
/* E:\apps\酷6网\极速酷6\Ku6SpeedUpper.exe */
static char *icon[] = {
"48 48 231 2",
"01 c #133D08",
"02 c #1A3E11",
"03 c #233D1D",
"04 c #2F2E2F",
"05 c #302F30",
"07 c #373839",
"08 c #383738",
"09 c #3C3C3D",
"0A c #3E3E40",
"0B c #1C450D",
"0C c #184A06",
"0D c #194C09",
"0E c #1D520A",
"0F c #204B0D",
"10 c #204610",
"11 c #25451B",
"12 c #224913",
"13 c #22540B",
"14 c #295316",
"15 c #2F561B",
"17 c #294424",
"19 c #354434",
"1A c #364D32",
"1C c #3B4F38",
"1D c #335327",
"1E c #28600F",
"1F c #2D6614",
"20 c #326616",
"21 c #306A15",
"22 c #336C1B",
"23 c #35701C",
"24 c #39721D",
"25 c #3C7A1E",
"26 c #386724",
"27 c #3C7423",
"28 c #42523F",
"29 c #427C1F",
"2A c #406A2D",
"2B c #486A39",
"2C c #427C27",
"2D c #497A35",
"2E c #53743E",
"30 c #464648",
"31 c #4B4B4D",
"32 c #4E4E50",
"33 c #445243",
"34 c #465941",
"35 c #4D5C4C",
"36 c #525254",
"37 c #565658",
"38 c #515F51",
"3A c #4A6341",
"3D c #5A6758",
"3E c #587849",
"3F c #5F6061",
"40 c #616C5F",
"41 c #616263",
"43 c #67686A",
"45 c #6F6F71",
"46 c #687267",
"47 c #6F7072",
"48 c #727374",
"49 c #747678",
"4B c #76787A",
"4C c #7A7B7D",
"4D c #7D7E80",
"4F c #468129",
"50 c #468A23",
"51 c #488425",
"52 c #49842B",
"53 c #4A8B25",
"54 c #4D8A2D",
"55 c #4D8433",
"56 c #4D9328",
"57 c #508E2F",
"58 c #528B34",
"59 c #519029",
"5A c #559B2D",
"5B c #579733",
"5C c #58A02E",
"5D c #5DA135",
"5E c #61A539",
"5F c #62AB35",
"60 c #65AA3B",
"61 c #68AD3D",
"62 c #6AB43C",
"63 c #73BA3E",
"64 c #5E8646",
"65 c #649B46",
"66 c #6A9652",
"67 c #75836E",
"68 c #7A8675",
"69 c #7C976D",
"6A c #7F9975",
"6B c #6BA346",
"6D c #6AAD42",
"6E c #6EAA4C",
"6F c #6DB640",
"70 c #72AF4C",
"71 c #72A753",
"72 c #72BC42",
"73 c #75B350",
"74 c #7BB354",
"75 c #7AB658",
"76 c #7CA468",
"77 c #74C143",
"78 c #7CC143",
"79 c #7BC24C",
"7B c #7E8082",
"7C c #839B7A",
"7D c #88AF71",
"7E c #87BA68",
"7F c #8EB975",
"80 c #92BD7A",
"81 c #83C244",
"82 c #84C349",
"83 c #84CA4A",
"84 c #8AC545",
"85 c #8CC54A",
"86 c #89CC4E",
"87 c #82C353",
"88 c #84C45A",
"89 c #87CB58",
"8A c #88C45C",
"8B c #8ECA52",
"8C c #8BCA5E",
"8D c #92C84C",
"8E c #94CA52",
"8F c #96CB5F",
"90 c #9BCB53",
"91 c #9CCC5B",
"92 c #8CC766",
"93 c #92CB66",
"96 c #98CE6E",
"98 c #97D368",
"99 c #98D260",
"9A c #9DD56C",
"9B c #9ED472",
"9C c #A0CD56",
"9D c #A5D05E",
"9E c #A6D168",
"9F c #A1D373",
"A0 c #A6D47B",
"A1 c #A7D87C",
"A2 c #AFD77B",
"A3 c #B7D879",
"A4 c #818384",
"A6 c #848B84",
"A7 c #868889",
"A8 c #88878C",
"A9 c #8A8B8D",
"AA c #8C8C91",
"AB c #8D9888",
"AC c #8E9092",
"AD c #929395",
"AE c #959599",
"AF c #969899",
"B0 c #98969D",
"B2 c #999A9C",
"B3 c #9C9CA0",
"B4 c #8CA483",
"B5 c #9AA397",
"B6 c #9EBC8C",
"B7 c #9EA0A1",
"B8 c #A19EA5",
"B9 c #A3BB97",
"BA c #A2A3A4",
"BB c #A5A3AA",
"BC c #A4ABA1",
"BD c #A6A8A9",
"BE c #A9A6AD",
"BF c #AAABAC",
"C1 c #ABB5A7",
"C2 c #AFB0B1",
"C3 c #B0AFB4",
"C4 c #B2B3B5",
"C5 c #B6B4B9",
"C6 c #B7B8B8",
"C7 c #B9BBBB",
"C8 c #BEBEC0",
"C9 c #9BCA80",
"CA c #A2C089",
"CB c #A6C597",
"CC c #A9D684",
"CD c #ABD097",
"CE c #B6DC88",
"CF c #BADD96",
"D0 c #B5C8AC",
"D1 c #BAC3B8",
"D2 c #BBDBA8",
"D3 c #BBD3B0",
"D4 c #BDE493",
"D5 c #BFC0C1",
"D6 c #C1BFC3",
"D7 c #C5E298",
"D8 c #C7E4A4",
"D9 c #CAE6B6",
"DA c #D4E6A7",
"DB c #DAEAB4",
"DC c #E2EDBC",
"DD c #E9F0BF",
"DE c #C2C3C4",
"DF c #C5C5C8",
"E0 c #C8C7CB",
"E1 c #CACBCC",
"E2 c #CFD0D0",
"E4 c #D3D3D4",
"E5 c #D6D7D8",
"E6 c #DBDCDC",
"E7 c #D5E9C8",
"E8 c #D9E6D3",
"E9 c #DFE0E0",
"EA c #E0DEE1",
"EB c #E4EEDE",
"EC c #EAF1C8",
"ED c #E4F1DC",
"EE c #F2F4CE",
"EF c #F7F7D6",
"F1 c #E7E6E8",
"F2 c #E7E8E8",
"F4 c #EBEBEB",
"F5 c #EFEEF1",
"F6 c #ECF4E7",
"F7 c #EFF0F0",
"F8 c #F0EEF1",
"F9 c #F3F9EF",
"FA c #F3F3F3",
"FC c #F4F9F1",
"FD c #F8F6F9",
"FE c #FEFEFE",
"   c None",
"                                        B7AFAFB7BFC7                                            ",
"                              A9A9AAACAFAFACACA9A7A77B7BACB3                                    ",
"                        A943A4AFBDB7B0AFACACA9A9A7A77B7B7B7B4CA4BA                              ",
"                    AD367BBABDBDB0B0B0B7BBBFC4C4C4C4BDB0A77B4C4C4C4CBA                          ",
"                  3F3FB7C2BDBDBABABFC3C1B6807E7E7E7EC9CBD1C7BDA84B4B4C4C                        ",
"                3045C2C2BFBFBDBDBC7F75605F5D5D5C5A5A5A5A607580D0C6A7494949AF                    ",
"            AD0A4DC8C2C5C2BDB77D6F605D5C5B58575857575454545B565D7ED0BF4C4949A4                  ",
"          B2304DC8C2C5C2B8AB73605D5B5B58575252522C2C2C2C2C2C554F525D80D1A849494C                ",
"          3048C8C8C8C5B76A705F5E5B5B57545452522C2C2C2C2C272C27272C2C4F6ED0B0494949              ",
"        3141C2E0C8C8B76872605D5D585B57545252522C2C2C2727272727272727272C58CBB849494C            ",
"      4831BAE1DEDEBD676F5F5E5D5B585B585757542C5855252C2C272C272727272227234FCBB04949A8          ",
"      094DDEE1E1C84D5E6F5D5E5D585D585B5858227CF6E876252C292C2C2C2727272726274FB9AA4949BD        ",
"    4132BFE4E1E1B73E62615F5E5D5B5B585B5B5B0DDEFEFEFED3652C514F4F2C2C2C2327222255C24C4B4B        ",
"    0948E0E4E1D6465D72615F5F5E5D5D5D5B5B5D0DD1FEFEFEFEFCCB585153554F4F4F2C27222266BE4949A8      ",
"  4D0AB2E6E4E4BD3E62616160605F605D5E5E5D5D0ED1FEFEFEFEFEFEEB8053535653554F4F2C2322B4AA4C4B      ",
"  313FC8E6E4E57B55627261606060605F605F5F600ED1FEFEFEFEFEFEFEFEE77656595B53544F2C232DBD4C4CA7    ",
"  094BE2E6E5E1385F72616F61606060616060606013D1FEFEFEFEFEFEFEFEFEFED36E565A5B5B524F236AAA4C4B    ",
"B208A9E6E9E9C53A62726F6F6F6F6F6F606161616F13D1FEFEFEFEFEFEFEFEFEFEFEFCCD605A5D5A5B2958BA4C7BAE  ",
"A40AB2E6EAEAC22B6F7272726F6F6F6F6F6F6F6F7213D1FEFEFEFEFEFEFEFEFEFEFEFEFEEDC95D5D5D5B52B5A77BA4  ",
"4D09B2F1EAEABD2A7772727272727272727272727213D5FEFEFEFEFEFEFEFEFEFEFEFEFEFEFEE78A5F5F5676AA7B7B  ",
"430ABAF4EAF4B72A6F72727272727272727272727713D1FEFEFEFEFEFEFEFEFEFEFEFEFEFEFEFEFE87615F71B2A4A4BD",
"410ABAF4EAF4B7267772727272727272727272727713D5FEFEFEFEFEFEFEFEFEFEFEFEFEFEFEFEFE92616170B2A4A4B2",
"410AB2F4F1F4BD1D7772727272727272727272727713D1FEFEFEFEFEFEFEFEFEFEFEFEFEFEFEF6CC6272616FBCA7A4AD",
"4309ADF4F4F5C51D7272727272727272727272727713C8FEFEFEFEFEFEFEFEFEFEFEFEFEFDD2796262725F6DB5A9A7A9",
"4D09A7EAF7F4E41A5F7772727272727272727272770ED1FEFEFEFEFEFEFEFEFEFEFEFEE793626272726F6261B5A9A9AD",
"A70949E6FAF4F435507772727272727272727272770FD5FEFEFEFEFEFEFEFEFEFEEDCC626F727272726F6161B5ACA9AD",
"B20936E1FAF4FDA91F7977797263727272727272770FD1FEFEFEFEFEFEFEFEF9CF776272727272727262626DAFADACAD",
"  3009BAFDFAFAC8117287798779797979796379790DC8FEFEFEFEFEFEFED988627277726377636363626270B2ACADAD",
"  360743EAFAF7F838298C93888A888779797979790FC6FEFEFEFEFEE8986263637963797763636363635F71B2B2ADB2",
"  4D0831DEFEFAFEBF0B87989B9B9393938888888910D5FEFEFEF6CC63636378636363636363786362626169B3B0ADBA",
"    0804A4FAFAFAF835259BA2CCCCA09B9693939815A7FEFCD88763797878787878786378786363626261ABB3B2AFC2",
"    320431DEFEFAFEDE0270CCCFD8CFCFCCCCA0A07E2ECA9F828282827882787878787878636363626266B0B7B2B2  ",
"    AF08054DF5FEFAFEA60C93CFDADBDBDAD8D7CFCECE9B918F8B85828582828181788178786363625F68BABAB7BA  ",
"      310809C2FEFAFDFA381E9AD7DBECECECDDDBDAD7CEA39E9D908D84848484818178786363636264ADBDBABAC2  ",
"        080836E5FEFAFEEA1C219BD8DCEFEFEFEFEEDBDAD7A39D9C908D848D8481818178636363584DBFBDBDBA    ",
"        43080848FAFEFAFEE61A1F93D7DCECEFEFEFEFDDDAD7A39D9C908D8D848481817863785A3DC2C2BFBDC2    ",
"          300807A9FEFEFAFEEA1C138ACFDBECEFEFEEDDDAD7A39D9C908D848482827878785A28BDC2C2C2BF      ",
"            090909BAFEFEFAFEF446015BA1D8DBDDDCDBDAD7A39D90908B8484827882775133BDC8C2C2C2DE      ",
"            A90A0909BDFEFEFAFEFEBF17136BA0D7D8D7D4A39E99908B85858283785C153FC2C8C2C8C2C2        ",
"              4D300909B2FEFEFAFAFEF4A6170D5474939B9B998E8B86837862591419AAE0DEC8C8C2C2          ",
"                4D303009A4FAFEFAFAFAFEEABA34110B13245159532920120333ADE0E2DEDED5D5C6C8          ",
"                  AD30310941E4FEFEFAFAFAFDFAEAC6A6403528343D4BBADEE4E4E1E1DEDFDEC6C2            ",
"                      36323030ADF4FEFDF7F4F7F4FAFAFAF4F4EAF2EAEAE6E4E2E1E1E1E0BFC2              ",
"                        433631303FBDF4FEFEF7F4F4F4EAF2EAEAE9E6E6E4E4E4E4E4C8B2C8                ",
"                            413636313FB2E4F4FDFAF7F4F4F2EAEAE9E6E6E6E4C8B7B2                    ",
"                              BA433F3F373F45B2DEE4E6E6EAEAE9E5E2DEBDAAACD5                      ",
"                                    A9484343414347484BA4AAA7A47BA4AF                            ",
"                                          C2ADA9A7A4A4A7A9AEBF                                  "};
