/* XPM */
/* C:\Program Files\NamiRobot\uninstaller.exe */
static char *icon[] = {
"32 32 5 2",
"00 c #000000",
"07 c #C0C0C0",
"08 c #808080",
"0F c #FFFFFF",
"   c None",
"                00000000000000                                  ",
"            00000F0F0807080F0F0000                              ",
"        00000F0F080808000807070F0F0000                          ",
"    00000F0F08080808080008080707070F0F0000                      ",
"  000F0F0808080808080800080807070707070F0F0000                  ",
"  000F0808080808080808000808080707070707070F0F0000              ",
"    080F0F0808080808080008080807070707070707070F0F0000          ",
"    0807070F0F0808080800080808080707070707070707070F0F0000      ",
"    08070707070F0F0808000808080807070707070707070707070F0F00    ",
"    080707070707070F0F0808080808080707070707070707070707070F00  ",
"      08070707070707070F0F0808080807070707070707070708080F0F00  ",
"      080707080807070707070F0F08080807070707070708080F0F0800    ",
"      0807070800080807070707070F0F080807070708080F0F08080800    ",
"      08070708000000080807070707070F0F0808080F0F080808080800    ",
"      080707080000000000080807070707070F0F0F0808080808080800    ",
"        08070800000F0F000000080807070707070808080808080800      ",
"        0807070800000F000000000008070707070808080808080800      ",
"        080707080000000F0F000000000F0707070808080808080800      ",
"        080707080000000F0F0F0F00000F0707070808080808080800      ",
"        080707080000000F000F0F0F000F0707070808080808080800      ",
"          0807070F00000000000F00000F07070708080808080800        ",
"          080707070F0F0000000F00000F07070708080808080800        ",
"          0807070707070F0F000000000F07070708080808080800        ",
"          08070707070707070F0F00000F07070708080808080800        ",
"          000007070707070707070F0F0F07070708080808080800        ",
"              0000070707070707070707070707080808080800          ",
"                  000007070707070707070707080808080800          ",
"                      00000707070707070707080808080800          ",
"                          0000070707070707080808080800          ",
"                              0000070707070808080000            ",
"                                  00000707080000                ",
"                                      000000                    "};
