/* XPM */
static char *deluge_torrent___[] = {
/* columns rows colors chars-per-pixel */
"32 32 133 2",
"   c #173A302D5376",
".  c #1D1D3B0B6718",
"X  c #1A463F8E74F4",
"o  c #24363E3961CC",
"O  c #1D4B420476C2",
"+  c #1E6943597855",
"@  c #23AB40526861",
"#  c #2B12498375D3",
"$  c #2278464A79F6",
"%  c #2503486C7B2C",
"&  c #2A454C637D7D",
"*  c #30454EF5795B",
"=  c #3A2D520E7419",
"-  c #35C8536F7C84",
";  c #40365A237E5D",
":  c #2DC850E68239",
">  c #2D3255EE8A6C",
",  c #33A3547A83A8",
"<  c #37E0575C83E6",
"1  c #39FF5980868C",
"2  c #3CD85C8189C2",
"3  c #36CE5D669070",
"4  c #413C5F948BA3",
"5  c #442F625F8D94",
"6  c #4C1868248F47",
"7  c #43BC66EC95CC",
"8  c #4993672F9167",
"9  c #4C2469669324",
"0  c #44A76A5D9B3B",
"q  c #4BEB6D5F9A5B",
"w  c #520D6DB195B7",
"e  c #55AF70D897BD",
"r  c #547772219A84",
"t  c #5B9575B19AB0",
"y  c #5E5279059DB3",
"u  c #64427C2E9E37",
"i  c #4C337309A312",
"p  c #430173FFAB9D",
"a  c #4C3C7768AA10",
"s  c #52B175BCA252",
"d  c #56BC7AD7A705",
"f  c #5C367B4AA382",
"g  c #54687B28A9B2",
"h  c #5C037E66A9CF",
"j  c #44897745B047",
"k  c #4BB57CA9B347",
"l  c #65CE7F74A2F0",
"z  c #5E758262ADE9",
"x  c #53658209B679",
"c  c #5B608327B198",
"v  c #54F184A5B9D7",
"b  c #5A18871BB9BF",
"n  c #5CA8897DBB84",
"m  c #63918159A6EB",
"M  c #6D778425A3EE",
"N  c #668A8486AABD",
"B  c #6E8E86F2A895",
"V  c #6CD888F4AD7E",
"C  c #71408759A620",
"Z  c #79968756A0D9",
"A  c #737A88F9A6BB",
"S  c #73D48C6BADBC",
"D  c #78EC8EA8AC8C",
"F  c #7C4B9194AEC9",
"G  c #602E8711B3EF",
"H  c #63568A90B820",
"J  c #6BC98C63B406",
"K  c #63FA8CF2BBA1",
"L  c #724F8F7AB398",
"P  c #676390F9C009",
"I  c #6C8590DDBB52",
"U  c #73879173B67B",
"Y  c #7F7D9646B4FE",
"T  c #736E94DEBC7B",
"R  c #7A01962FB950",
"E  c #7E0498A5BA7A",
"W  c #5FAB8D70C049",
"Q  c #6547919AC205",
"!  c #6A7F9478C304",
"~  c #72FC979BC14D",
"^  c #73D69A11C4F2",
"/  c #74CD9D78CA5A",
"(  c #7A5B9FD6CA07",
")  c #7BC9A319CE31",
"_  c #7F6BA6BDD177",
"`  c #835A8E71A54E",
"'  c #8E5E983CACC5",
"]  c #8094964CB360",
"[  c #83E99835B51F",
"{  c #8ADC9A70B2EF",
"}  c #84759E33BE46",
"|  c #8A979F40BB61",
" . c #8E1CA2D3BDB5",
".. c #9711A27BB697",
"X. c #A2FFAB6DBC49",
"o. c #8183A106C43E",
"O. c #8B7EA497C356",
"+. c #8E92A82AC775",
"@. c #85F3A674CB02",
"#. c #972CAA41C29B",
"$. c #9BC4AB61C24C",
"%. c #9E15B0CDC7BE",
"&. c #A002B5B8CFF0",
"*. c #8118A7C8D1F0",
"=. c #84CCAABAD3F3",
"-. c #8AC3AEC7D5F7",
";. c #90CDAFB7D272",
":. c #8E02B258D95D",
">. c #9210B58DDB97",
",. c #9744B9A6DE4D",
"<. c #9AE7BB5EDE26",
"1. c #A0F8B33CCA17",
"2. c #A88BBB69D218",
"3. c #9C9FBDBDE12B",
"4. c #ABBEC1A2D99D",
"5. c #B29AC64ADCA8",
"6. c #9FD0C09FE382",
"7. c #A508C48EE5FF",
"8. c #A94EC811E861",
"9. c #A8FBC7D8E86E",
"0. c #ACB4CABDEA3E",
"q. c #B77DCE64E5AF",
"w. c #B2F0CEF9EC4D",
"e. c #B657D259EF98",
"r. c #BE5ED4B1EBE8",
"t. c #BD51D7F6F359",
"y. c #BF0FD99DF489",
"u. c #C41ADCA4F5C3",
"i. c #CE8CDF7FF104",
"p. c #D03DE316F5C8",
"a. c #CD25E478FBC8",
"s. c #D474E9BDFE80",
"d. c None",
/* pixels */
"d.d.d.d.d.d.d.d.d.d.d.d.d.d.d.d.d.d.d.d.d.d.d.d.d.d.d.d.d.d.d.d.",
"d.d.d.d.d.d.d.d.d.d.d.d.d.d.d.` ` d.d.d.d.d.d.d.d.d.d.d.d.d.d.d.",
"d.d.d.d.d.d.d.d.d.d.d.d.d.d.d.X.X.d.d.d.d.d.d.d.d.d.d.d.d.d.d.d.",
"d.d.d.d.d.d.d.d.d.d.d.d.d.d.' X.X...d.d.d.d.d.d.d.d.d.d.d.d.d.d.",
"d.d.d.d.d.d.d.d.d.d.d.d.d.Z ..{ { $.{ d.d.d.d.d.d.d.d.d.d.d.d.d.",
"d.d.d.d.d.d.d.d.d.d.d.d.u { [ F ] | #.Y d.d.d.d.d.d.d.d.d.d.d.d.",
"d.d.d.d.d.d.d.d.d.d.d.d.S [ S U R R O.+.L d.d.d.d.d.d.d.d.d.d.d.",
"d.d.d.d.d.d.d.d.d.d.d.l E J J I T ~ T @.o.d.d.d.d.d.d.d.d.d.d.d.",
"d.d.d.d.d.d.d.d.d.d.i J s 7 q s z J ! ^ @.^ d.d.d.d.d.d.d.d.d.d.",
"d.d.d.d.d.d.d.d.d.d.d 7 + O % , 5 r h K ^ @.Q d.d.d.d.d.d.d.d.d.",
"d.d.d.d.d.d.d.d.d.0 9 % % , 1 2 5 w e r G ^ ) n d.d.d.d.d.d.d.d.",
"d.d.d.d.d.d.d.d.3 9 , 1 9 e t t r t u t r z ^ ^ d.d.d.d.d.d.d.d.",
"d.d.d.d.d.d.d.> 8 5 5 t M l V T ^ ~ T V u r c ^ K d.d.d.d.d.d.d.",
"d.d.d.d.d.d.d.2 9 2 t M M } -.=.*._ ) ( J y r b ^ v d.d.d.d.d.d.",
"d.d.d.d.d.d.: 8 1 9 M C  .<.:.:.:.-.=._ / J y g K ! d.d.d.d.d.d.",
"d.d.d.d.d.d.2 5 < t A F 4.3.3.<.,.>.:.=.) ^ N f x ! x d.d.d.d.d.",
"d.d.d.d.d.d.5 < 1 u A  .q.9.9.7.7.3.>.-.*./ I f x b H d.d.d.d.d.",
"d.d.d.d.d.d.8 & 2 u C %.r.w.w.0.8.7.,.:.=.) ! n x k H i d.d.d.d.",
"d.d.d.d.d.: 8 $ 1 u M 1.u.y.t.e.0.7.3.>.=.) ! W x k G s d.d.d.d.",
"d.d.d.d.d.: 9 + , t M #.p.a.u.y.e.8.3.>.=.) ! n x j c s d.d.d.d.",
"d.d.d.d.d.: 9 + % 8 l F i.s.a.u.e.8.3.>.=./ ! n k p z r d.d.d.d.",
"d.d.d.d.d.: 9 $ O < t M 2.s.a.u.e.9.3.:._ / Q b k p z 9 d.d.d.d.",
"d.d.d.d.d.d.5 & X % 5 u D 5.a.u.w.7.,.-.) / Q b k a N 5 d.d.d.d.",
"d.d.d.d.d.d.2 1 X O & 8 u F &.w.0.6.>.=.) / ! n k z f < d.d.d.d.",
"d.d.d.d.d.d.# 5 $ X O & 5 t B Y +.;.-.=.) / ! n c J 6 d.d.d.d.d.",
"d.d.d.d.d.d.d.1 5 + X O % < 8 t u B L U ~ ^ P H U y = d.d.d.d.d.",
"d.d.d.d.d.d.d.. 4 5 % X O O % , 4 9 w w w q h U m ; d.d.d.d.d.d.",
"d.d.d.d.d.d.d.d.. 2 9 1 % + O $ & , 1 5 8 t y 8 - d.d.d.d.d.d.d.",
"d.d.d.d.d.d.d.d.d.  # 5 8 5 5 5 5 9 e t t 9 - o d.d.d.d.d.d.d.d.",
"d.d.d.d.d.d.d.d.d.d.d.d.@ < 1 2 5 5 5 2 * o d.d.d.d.d.d.d.d.d.d.",
"d.d.d.d.d.d.d.d.d.d.d.d.d.d.d.d.d.d.d.d.d.d.d.d.d.d.d.d.d.d.d.d.",
"d.d.d.d.d.d.d.d.d.d.d.d.d.d.d.d.d.d.d.d.d.d.d.d.d.d.d.d.d.d.d.d."
};
