/* XPM */
/* E:\Apps\internet\thunder5.5.6.274\Thunder.exe */
static char *icon[] = {
"32 32 18 2",
"AC c #0066CC",
"AD c #3366CC",
"B3 c #3399CC",
"B4 c #6699CC",
"B5 c #9999CC",
"BB c #99CCCC",
"CD c #0066FF",
"D3 c #0099FF",
"D4 c #3399FF",
"D5 c #6699FF",
"D9 c #00CCFF",
"DA c #33CCFF",
"DB c #66CCFF",
"DF c #33FFFF",
"E1 c #99FFFF",
"E8 c #66FFFF",
"F4 c #F1F1F1",
"   c None",
"                                                                ",
"                                                        B4ACAD  ",
"                                                  B3ACACCDCDAD  ",
"                                            B4ACACCDCDCDCDAD    ",
"                                      ACACACACCDCDCDACB4        ",
"                                  ADACACCDCDCDD3AD              ",
"                            B4ACACD3D3CDCDCDAD                  ",
"                        ADACD4DAD3CDCDD3B3                      ",
"                    ACACDBDBDAD3CDCDAD                          ",
"                  ACDAE1DBD3CDD3D4                              ",
"                D3DBE1DACDD3D3AD                                ",
"              D3DBDBD4CDD3D3B3                                  ",
"            D3DADBD3CDCDD3AC                                    ",
"          D3DADAD3D3D3D3D3B3                                    ",
"        ACD9DAD9D3D3D3D3D3AC                                    ",
"        D3D9D9D3D3D3D3D9D9AC                                    ",
"      ACDAD9D9DADADADADADAAC                                    ",
"      D3DADADADADADADADAACB4                                    ",
"      DADADAB3B3B3B3B3B4                                        ",
"    ADDADAB4    B5B4B4B4B4B3AD                                  ",
"    ACE8B3    B3D4DAE1F4F4F4DBDAD4ADDB                          ",
"    ACDBBBB4ACB3DADFDFE8E8E8E8DFDFDFDADBDB                      ",
"    B4B4BBB4B4  B4DAE8E8E8E8B3B4B4B4B3B3DADADBDB                ",
"            B4B4B4B4D5DBE8DBB5            B4B3DADADBDB          ",
"            B5B3DADAB4B5B4B4                    B4B3B3AD        ",
"              BBDAE8DAB4                                        ",
"                B4B3B4DAB4                                      ",
"                      B4D4B4                                    ",
"                        B4B4BB                                  ",
"                          B4D5BB                                ",
"                            B4B4                                ",
"                                                                "};
