/* XPM */
/* D:\apps\archiver\Winrar\WinRAR.exe */
static char *icon[] = {
"48 48 17 2",
"00 c #000000",
"01 c #800000",
"02 c #008000",
"03 c #808000",
"04 c #000080",
"05 c #800080",
"06 c #008080",
"07 c #C0C0C0",
"08 c #808080",
"09 c #FF0000",
"0A c #00FF00",
"0B c #FFFF00",
"0C c #0000FF",
"0D c #FF00FF",
"0E c #00FFFF",
"0F c #FFFFFF",
"   c None",
"                                                                                                ",
"                                                                                                ",
"                                                                                                ",
"                                                                                                ",
"      0101010101010501050105010501010000010100010501050105010501010101010100                    ",
"      080101010105010501050105010501050000010100010501050105010501050101010100                  ",
"        080101050507070708030105010501050001010100010501050105010501050101010100                ",
"        070801010505070B0708030105010501050000010100010501050105010501050105010100              ",
"        0F070801010105070B0708030105010501050001010100010501050105010501050105010100            ",
"        070F07080101010507070708030105010501050000010100010501050105010501050105010100          ",
"        0F070F07080101050505050505050105010501050001050100010501050105010501050105010100        ",
"        070F070F07080105050505050505050505050505050005050100050505050505050505050505050100      ",
"        0F070F070F07000F070D0D0D0D0D0D0D0D0D0D0D0800000D0501050D0D0D0D0D0D0D0D0D0D0D0D0D00      ",
"      05080F070F070F0005050505050505050505050501050001050100010505050505050505050505050100      ",
"      0805080F070F07000501050B050B05010501050105010100000100010501050105010501050105010500      ",
"        0805080F070F000105010B010B01050105010501050001000100010105010501050105010501050100      ",
"        070805080F07000501050B050B05010501050105010100010100010501050105010501050105010500      ",
"        0F070805080F0001050107010701050105010501050100010F08010105010501050105010501050100      ",
"        070F07080508000501050305030501050105010501000F080708080801050105010501050105010500      ",
"        0F070F070305000000000000000000000000000000000F0007080008000000000000000000000000        ",
"        070F070F07080004040404040404040404040404040007000802000804040404040404040404040400      ",
"        0F070F070F07000E0B070707070707070707070707080F000404000808070707070707070707070700      ",
"      04080F070F070F000C0C0C0C0C0C0C0C0C0C0C0C0C04000701010000080C0C0C0C0C0C0C0C0C0C0C0400      ",
"      0804080F070F07000C0C0C0B0C0B040C040C040C040C00070001000008040C040C040C040C040C040C00      ",
"        0804080F070F000C040C0B0C0B0C040C040C040C04000808040403020C040C040C040C040C040C0400      ",
"        070804080F0700040C040B0C0B040C040C040C040C0400010D090004040C040C040C040C040C040C00      ",
"        0F070804080F000C040C070C070C040C040C040C040C0400050501040C040C040C040C040C040C0400      ",
"        070F0708040800040C04030C03040C040C040C040C04040101010004040C040C040C040C040C040C00      ",
"        0F070F07080400040404040404040404040404040404040001010104040404040404040404040404        ",
"        070F070F07080000000000000000000000000000000000010101000000000000000000000000000000      ",
"      080F070F070F07000F0B0A0A0A0A0A0A0A0A0A0A0A0A060000010101080A0A0A0A0A0A0A0A0A0A0A0A00      ",
"      00080F070F070F0006060606060606060606060606060600010101000606060606060606060606060600      ",
"        00080F070F07000602060B020B06020602060206020600000101010206020602060206020602060200      ",
"          00080F070F000206020B020B02060206020602060200010101000602060206020602060206020600      ",
"            00080F07000602060B020B06020602060206020600000101010206020602060206020602060200      ",
"              00080F0002060207020702060206020602060200010100010602060206020602060206020600      ",
"                00080002020202020202020202020202020200000101000202020202020202020202020200      ",
"                  0000000000000000000000000000000000000000000000000000000000000000000000        ",
"                                                                                                ",
"                                                                                                ",
"                                                                                                ",
"                                                                                                ",
"                                                                                                ",
"                                                                                                ",
"                                                                                                ",
"                                                                                                ",
"                                                                                                ",
"                                                                                                "};
